<svg xmlns="http://www.w3.org/2000/svg" xmlns:xlink="http://www.w3.org/1999/xlink" width="1366" zoomAndPan="magnify" viewBox="0 0 1024.5 576" height="768" preserveAspectRatio="xMidYMid meet" version="1.0"><defs><g/></defs><g fill="#000000" fill-opacity="1"><g transform="translate(196.673539, 279.853565)"><g><path d="M 0.703125 -33.65625 C 0.703125 -34.351562 0.96875 -34.816406 1.5 -35.046875 C 2.039062 -35.285156 2.707031 -35.40625 3.5 -35.40625 C 4.34375 -35.40625 5.238281 -35.332031 6.1875 -35.1875 C 7.144531 -35.050781 7.972656 -34.984375 8.671875 -34.984375 C 9.367188 -34.984375 10.195312 -35.050781 11.15625 -35.1875 C 12.113281 -35.332031 13.035156 -35.40625 13.921875 -35.40625 C 14.710938 -35.40625 15.375 -35.285156 15.90625 -35.046875 C 16.445312 -34.816406 16.71875 -34.351562 16.71875 -33.65625 C 16.71875 -33.144531 16.597656 -32.757812 16.359375 -32.5 C 16.128906 -32.238281 15.851562 -31.910156 15.53125 -31.515625 C 15.207031 -31.117188 14.925781 -30.5 14.6875 -29.65625 C 14.457031 -28.820312 14.34375 -27.585938 14.34375 -25.953125 L 14.34375 -22.875 C 14.34375 -21.707031 14.925781 -21.125 16.09375 -21.125 L 20.84375 -21.125 C 22.007812 -21.125 22.59375 -21.707031 22.59375 -22.875 L 22.59375 -25.953125 C 22.59375 -27.585938 22.476562 -28.820312 22.25 -29.65625 C 22.019531 -30.5 21.738281 -31.117188 21.40625 -31.515625 C 21.082031 -31.910156 20.800781 -32.238281 20.5625 -32.5 C 20.332031 -32.757812 20.21875 -33.144531 20.21875 -33.65625 C 20.21875 -34.351562 20.484375 -34.816406 21.015625 -35.046875 C 21.554688 -35.285156 22.222656 -35.40625 23.015625 -35.40625 C 23.859375 -35.40625 24.753906 -35.332031 25.703125 -35.1875 C 26.660156 -35.050781 27.492188 -34.984375 28.203125 -34.984375 C 28.898438 -34.984375 29.722656 -35.050781 30.671875 -35.1875 C 31.628906 -35.332031 32.550781 -35.40625 33.4375 -35.40625 C 34.238281 -35.40625 34.90625 -35.285156 35.4375 -35.046875 C 35.976562 -34.816406 36.25 -34.351562 36.25 -33.65625 C 36.25 -33.144531 36.128906 -32.757812 35.890625 -32.5 C 35.660156 -32.238281 35.378906 -31.910156 35.046875 -31.515625 C 34.722656 -31.117188 34.441406 -30.5 34.203125 -29.65625 C 33.972656 -28.820312 33.859375 -27.585938 33.859375 -25.953125 L 33.859375 -9.03125 C 33.859375 -7.394531 33.972656 -6.15625 34.203125 -5.3125 C 34.441406 -4.476562 34.722656 -3.863281 35.046875 -3.46875 C 35.378906 -3.070312 35.660156 -2.742188 35.890625 -2.484375 C 36.128906 -2.222656 36.25 -1.835938 36.25 -1.328125 C 36.25 -0.628906 35.976562 -0.164062 35.4375 0.0625 C 34.90625 0.300781 34.238281 0.421875 33.4375 0.421875 C 32.550781 0.421875 31.628906 0.347656 30.671875 0.203125 C 29.722656 0.0664062 28.898438 0 28.203125 0 C 27.492188 0 26.660156 0.0664062 25.703125 0.203125 C 24.753906 0.347656 23.859375 0.421875 23.015625 0.421875 C 22.222656 0.421875 21.554688 0.300781 21.015625 0.0625 C 20.484375 -0.164062 20.21875 -0.628906 20.21875 -1.328125 C 20.21875 -1.835938 20.332031 -2.222656 20.5625 -2.484375 C 20.800781 -2.742188 21.082031 -3.070312 21.40625 -3.46875 C 21.738281 -3.863281 22.019531 -4.476562 22.25 -5.3125 C 22.476562 -6.15625 22.59375 -7.394531 22.59375 -9.03125 L 22.59375 -15.671875 C 22.59375 -16.835938 22.007812 -17.421875 20.84375 -17.421875 L 16.09375 -17.421875 C 14.925781 -17.421875 14.34375 -16.835938 14.34375 -15.671875 L 14.34375 -9.03125 C 14.34375 -7.394531 14.457031 -6.15625 14.6875 -5.3125 C 14.925781 -4.476562 15.207031 -3.863281 15.53125 -3.46875 C 15.851562 -3.070312 16.128906 -2.742188 16.359375 -2.484375 C 16.597656 -2.222656 16.71875 -1.835938 16.71875 -1.328125 C 16.71875 -0.628906 16.445312 -0.164062 15.90625 0.0625 C 15.375 0.300781 14.710938 0.421875 13.921875 0.421875 C 13.035156 0.421875 12.113281 0.347656 11.15625 0.203125 C 10.195312 0.0664062 9.367188 0 8.671875 0 C 7.972656 0 7.144531 0.0664062 6.1875 0.203125 C 5.238281 0.347656 4.34375 0.421875 3.5 0.421875 C 2.707031 0.421875 2.039062 0.300781 1.5 0.0625 C 0.96875 -0.164062 0.703125 -0.628906 0.703125 -1.328125 C 0.703125 -1.835938 0.816406 -2.222656 1.046875 -2.484375 C 1.285156 -2.742188 1.566406 -3.070312 1.890625 -3.46875 C 2.210938 -3.863281 2.488281 -4.476562 2.71875 -5.3125 C 2.957031 -6.15625 3.078125 -7.394531 3.078125 -9.03125 L 3.078125 -25.953125 C 3.078125 -27.585938 2.957031 -28.820312 2.71875 -29.65625 C 2.488281 -30.5 2.210938 -31.117188 1.890625 -31.515625 C 1.566406 -31.910156 1.285156 -32.238281 1.046875 -32.5 C 0.816406 -32.757812 0.703125 -33.144531 0.703125 -33.65625 Z M 0.703125 -33.65625 "/></g></g></g><g fill="#000000" fill-opacity="1"><g transform="translate(233.613494, 279.853565)"><g><path d="M 8.890625 0 C 8.191406 0 7.363281 0.0664062 6.40625 0.203125 C 5.445312 0.347656 4.546875 0.421875 3.703125 0.421875 C 2.910156 0.421875 2.242188 0.300781 1.703125 0.0625 C 1.171875 -0.164062 0.90625 -0.628906 0.90625 -1.328125 C 0.90625 -1.835938 1.019531 -2.222656 1.25 -2.484375 C 1.488281 -2.742188 1.769531 -3.070312 2.09375 -3.46875 C 2.425781 -3.863281 2.707031 -4.476562 2.9375 -5.3125 C 3.164062 -6.15625 3.28125 -7.394531 3.28125 -9.03125 C 3.28125 -11.175781 3.289062 -12.722656 3.3125 -13.671875 C 3.34375 -14.628906 3.359375 -15.328125 3.359375 -15.765625 C 3.359375 -16.210938 3.359375 -16.71875 3.359375 -17.28125 C 3.359375 -18.539062 3.160156 -19.414062 2.765625 -19.90625 C 2.367188 -20.394531 1.972656 -20.78125 1.578125 -21.0625 C 1.179688 -21.34375 0.984375 -21.785156 0.984375 -22.390625 C 0.984375 -23.085938 1.210938 -23.5625 1.671875 -23.8125 C 2.140625 -24.070312 2.804688 -24.296875 3.671875 -24.484375 C 4.535156 -24.671875 5.570312 -24.976562 6.78125 -25.40625 C 8.28125 -25.957031 9.304688 -26.453125 9.859375 -26.890625 C 10.421875 -27.335938 10.84375 -27.703125 11.125 -27.984375 C 11.40625 -28.265625 11.847656 -28.40625 12.453125 -28.40625 C 13.296875 -28.40625 13.851562 -28.03125 14.125 -27.28125 C 14.40625 -26.539062 14.546875 -25.65625 14.546875 -24.625 L 14.546875 -9.03125 C 14.546875 -7.394531 14.660156 -6.15625 14.890625 -5.3125 C 15.128906 -4.476562 15.410156 -3.863281 15.734375 -3.46875 C 16.066406 -3.070312 16.347656 -2.742188 16.578125 -2.484375 C 16.816406 -2.222656 16.9375 -1.835938 16.9375 -1.328125 C 16.9375 -0.628906 16.664062 -0.164062 16.125 0.0625 C 15.59375 0.300781 14.929688 0.421875 14.140625 0.421875 C 13.242188 0.421875 12.316406 0.347656 11.359375 0.203125 C 10.410156 0.0664062 9.585938 0 8.890625 0 Z M 0.90625 -30.359375 C 0.4375 -31.765625 0.679688 -33.28125 1.640625 -34.90625 C 2.597656 -36.539062 4.054688 -37.875 6.015625 -38.90625 C 7.648438 -39.738281 9.144531 -40.15625 10.5 -40.15625 C 12.550781 -40.15625 13.878906 -39.316406 14.484375 -37.640625 C 14.992188 -36.191406 14.769531 -34.675781 13.8125 -33.09375 C 12.863281 -31.507812 11.410156 -30.179688 9.453125 -29.109375 C 7.765625 -28.265625 6.242188 -27.84375 4.890625 -27.84375 C 2.890625 -27.84375 1.5625 -28.679688 0.90625 -30.359375 Z M 0.90625 -30.359375 "/></g></g></g><g fill="#000000" fill-opacity="1"><g transform="translate(251.173961, 279.853565)"><g><path d="M 1.046875 -27.84375 C 1.046875 -29.800781 1.582031 -31.550781 2.65625 -33.09375 C 3.726562 -34.632812 5.242188 -35.40625 7.203125 -35.40625 C 9.160156 -35.40625 10.675781 -34.632812 11.75 -33.09375 C 12.820312 -31.550781 13.359375 -29.800781 13.359375 -27.84375 C 13.359375 -26.03125 12.9375 -24.015625 12.09375 -21.796875 C 11.257812 -19.578125 10.515625 -17.441406 9.859375 -15.390625 C 9.441406 -13.992188 9.175781 -12.609375 9.0625 -11.234375 C 8.945312 -9.859375 8.796875 -8.710938 8.609375 -7.796875 C 8.421875 -6.890625 7.976562 -6.4375 7.28125 -6.4375 C 6.582031 -6.4375 6.125 -6.890625 5.90625 -7.796875 C 5.695312 -8.710938 5.519531 -9.859375 5.375 -11.234375 C 5.238281 -12.609375 4.960938 -13.992188 4.546875 -15.390625 C 3.941406 -17.441406 3.207031 -19.578125 2.34375 -21.796875 C 1.476562 -24.015625 1.046875 -26.03125 1.046875 -27.84375 Z M 7.28125 0.421875 C 6.53125 0.421875 5.875 0.140625 5.3125 -0.421875 C 4.757812 -0.984375 4.484375 -1.660156 4.484375 -2.453125 C 4.484375 -3.242188 4.757812 -3.914062 5.3125 -4.46875 C 5.875 -5.03125 6.53125 -5.3125 7.28125 -5.3125 C 8.070312 -5.3125 8.757812 -5.03125 9.34375 -4.46875 C 9.925781 -3.914062 10.191406 -3.242188 10.140625 -2.453125 C 10.097656 -1.660156 9.804688 -0.984375 9.265625 -0.421875 C 8.734375 0.140625 8.070312 0.421875 7.28125 0.421875 Z M 7.28125 0.421875 "/></g></g></g><g fill="#000000" fill-opacity="1"><g transform="translate(265.586139, 279.853565)"><g/></g></g><g fill="#000000" fill-opacity="1"><g transform="translate(276.080445, 279.853565)"><g><path d="M 0.703125 -1.328125 C 0.703125 -1.835938 0.816406 -2.222656 1.046875 -2.484375 C 1.285156 -2.742188 1.566406 -3.070312 1.890625 -3.46875 C 2.210938 -3.863281 2.488281 -4.476562 2.71875 -5.3125 C 2.957031 -6.15625 3.078125 -7.394531 3.078125 -9.03125 L 3.078125 -25.953125 C 3.078125 -27.585938 2.957031 -28.820312 2.71875 -29.65625 C 2.488281 -30.5 2.210938 -31.117188 1.890625 -31.515625 C 1.566406 -31.910156 1.285156 -32.238281 1.046875 -32.5 C 0.816406 -32.757812 0.703125 -33.144531 0.703125 -33.65625 C 0.703125 -34.351562 0.96875 -34.816406 1.5 -35.046875 C 2.039062 -35.285156 2.707031 -35.40625 3.5 -35.40625 C 4.34375 -35.40625 5.238281 -35.332031 6.1875 -35.1875 C 7.144531 -35.050781 7.972656 -34.984375 8.671875 -34.984375 C 9.367188 -34.984375 10.195312 -35.050781 11.15625 -35.1875 C 12.113281 -35.332031 13.015625 -35.40625 13.859375 -35.40625 C 14.648438 -35.40625 15.3125 -35.285156 15.84375 -35.046875 C 16.382812 -34.816406 16.65625 -34.351562 16.65625 -33.65625 C 16.65625 -33.144531 16.535156 -32.757812 16.296875 -32.5 C 16.066406 -32.238281 15.785156 -31.910156 15.453125 -31.515625 C 15.128906 -31.117188 14.851562 -30.5 14.625 -29.65625 C 14.394531 -28.820312 14.28125 -27.585938 14.28125 -25.953125 L 14.28125 -9.03125 C 14.28125 -7.394531 14.394531 -6.15625 14.625 -5.3125 C 14.851562 -4.476562 15.128906 -3.863281 15.453125 -3.46875 C 15.785156 -3.070312 16.066406 -2.742188 16.296875 -2.484375 C 16.535156 -2.222656 16.65625 -1.835938 16.65625 -1.328125 C 16.65625 -0.628906 16.382812 -0.164062 15.84375 0.0625 C 15.3125 0.300781 14.648438 0.421875 13.859375 0.421875 C 13.015625 0.421875 12.113281 0.347656 11.15625 0.203125 C 10.195312 0.0664062 9.367188 0 8.671875 0 C 7.972656 0 7.144531 0.0664062 6.1875 0.203125 C 5.238281 0.347656 4.34375 0.421875 3.5 0.421875 C 2.707031 0.421875 2.039062 0.300781 1.5 0.0625 C 0.96875 -0.164062 0.703125 -0.628906 0.703125 -1.328125 Z M 0.703125 -1.328125 "/></g></g></g><g fill="#000000" fill-opacity="1"><g transform="translate(293.431027, 279.853565)"><g><path d="M 5.734375 -25.53125 C 4.054688 -25.53125 2.851562 -26.007812 2.125 -26.96875 C 1.40625 -27.925781 1.046875 -29.082031 1.046875 -30.4375 C 1.046875 -31.832031 1.523438 -33.007812 2.484375 -33.96875 C 3.441406 -34.925781 4.617188 -35.40625 6.015625 -35.40625 C 7.367188 -35.40625 8.523438 -34.890625 9.484375 -33.859375 C 10.441406 -32.835938 10.921875 -31.367188 10.921875 -29.453125 C 10.921875 -28.378906 10.71875 -27.296875 10.3125 -26.203125 C 9.914062 -25.109375 9.320312 -24.195312 8.53125 -23.46875 C 7.738281 -22.75 6.710938 -22.390625 5.453125 -22.390625 C 4.710938 -22.390625 4.203125 -22.492188 3.921875 -22.703125 C 3.640625 -22.910156 3.5 -23.15625 3.5 -23.4375 C 3.5 -23.71875 3.6875 -23.832031 4.0625 -23.78125 C 4.4375 -23.738281 4.851562 -23.832031 5.3125 -24.0625 C 5.832031 -24.34375 6.113281 -24.65625 6.15625 -25 C 6.207031 -25.351562 6.066406 -25.53125 5.734375 -25.53125 Z M 5.734375 -25.53125 "/></g></g></g><g fill="#000000" fill-opacity="1"><g transform="translate(305.394529, 279.853565)"><g><path d="M 9.03125 0 C 8.320312 0 7.488281 0.0664062 6.53125 0.203125 C 5.582031 0.347656 4.6875 0.421875 3.84375 0.421875 C 3.050781 0.421875 2.382812 0.300781 1.84375 0.0625 C 1.3125 -0.164062 1.046875 -0.628906 1.046875 -1.328125 C 1.046875 -1.835938 1.160156 -2.222656 1.390625 -2.484375 C 1.628906 -2.742188 1.910156 -3.070312 2.234375 -3.46875 C 2.566406 -3.863281 2.847656 -4.476562 3.078125 -5.3125 C 3.304688 -6.15625 3.421875 -7.394531 3.421875 -9.03125 C 3.421875 -11.175781 3.429688 -12.722656 3.453125 -13.671875 C 3.484375 -14.628906 3.5 -15.328125 3.5 -15.765625 C 3.5 -16.210938 3.5 -16.71875 3.5 -17.28125 C 3.5 -18.539062 3.300781 -19.414062 2.90625 -19.90625 C 2.507812 -20.394531 2.113281 -20.78125 1.71875 -21.0625 C 1.320312 -21.34375 1.125 -21.785156 1.125 -22.390625 C 1.125 -23.085938 1.351562 -23.5625 1.8125 -23.8125 C 2.28125 -24.070312 2.945312 -24.296875 3.8125 -24.484375 C 4.675781 -24.671875 5.710938 -24.976562 6.921875 -25.40625 C 8.421875 -25.957031 9.445312 -26.453125 10 -26.890625 C 10.5625 -27.335938 10.984375 -27.703125 11.265625 -27.984375 C 11.546875 -28.265625 11.988281 -28.40625 12.59375 -28.40625 C 13.4375 -28.40625 13.992188 -28.03125 14.265625 -27.28125 C 14.546875 -26.539062 14.6875 -25.65625 14.6875 -24.625 L 14.6875 -24.0625 C 14.6875 -23.414062 14.804688 -23.09375 15.046875 -23.09375 C 15.273438 -23.09375 15.644531 -23.359375 16.15625 -23.890625 C 16.675781 -24.429688 17.34375 -25.050781 18.15625 -25.75 C 18.96875 -26.445312 19.945312 -27.0625 21.09375 -27.59375 C 22.238281 -28.132812 23.535156 -28.40625 24.984375 -28.40625 C 26.421875 -28.40625 27.609375 -28.132812 28.546875 -27.59375 C 29.484375 -27.0625 30.21875 -26.445312 30.75 -25.75 C 31.289062 -25.050781 31.722656 -24.429688 32.046875 -23.890625 C 32.367188 -23.359375 32.625 -23.09375 32.8125 -23.09375 C 33.144531 -23.09375 33.566406 -23.347656 34.078125 -23.859375 C 34.585938 -24.367188 35.238281 -24.984375 36.03125 -25.703125 C 36.820312 -26.429688 37.789062 -27.0625 38.9375 -27.59375 C 40.082031 -28.132812 41.445312 -28.40625 43.03125 -28.40625 C 45.21875 -28.40625 46.867188 -27.9375 47.984375 -27 C 49.109375 -26.070312 49.867188 -24.90625 50.265625 -23.5 C 50.671875 -22.101562 50.875 -20.679688 50.875 -19.234375 L 50.875 -9.03125 C 50.875 -7.394531 50.988281 -6.15625 51.21875 -5.3125 C 51.445312 -4.476562 51.710938 -3.863281 52.015625 -3.46875 C 52.316406 -3.070312 52.597656 -2.742188 52.859375 -2.484375 C 53.117188 -2.222656 53.25 -1.835938 53.25 -1.328125 C 53.25 -0.628906 53.050781 -0.164062 52.65625 0.0625 C 52.257812 0.300781 51.734375 0.421875 51.078125 0.421875 C 50.421875 0.421875 49.660156 0.347656 48.796875 0.203125 C 47.941406 0.0664062 47.113281 0 46.3125 0 C 45.570312 0 44.929688 0.03125 44.390625 0.09375 C 43.859375 0.164062 43.289062 0.25 42.6875 0.34375 C 41.75 0.4375 40.988281 0.226562 40.40625 -0.28125 C 39.820312 -0.789062 39.53125 -1.515625 39.53125 -2.453125 L 39.53125 -13.921875 C 39.53125 -16.160156 39.304688 -17.863281 38.859375 -19.03125 C 38.421875 -20.195312 37.597656 -20.78125 36.390625 -20.78125 C 35.410156 -20.78125 34.566406 -20.347656 33.859375 -19.484375 C 33.160156 -18.617188 32.8125 -16.882812 32.8125 -14.28125 L 32.8125 -9.03125 C 32.8125 -7.394531 32.925781 -6.15625 33.15625 -5.3125 C 33.394531 -4.476562 33.675781 -3.863281 34 -3.46875 C 34.332031 -3.070312 34.613281 -2.742188 34.84375 -2.484375 C 35.070312 -2.222656 35.1875 -1.835938 35.1875 -1.328125 C 35.1875 -0.628906 34.988281 -0.164062 34.59375 0.0625 C 34.195312 0.300781 33.675781 0.421875 33.03125 0.421875 C 32.375 0.421875 31.613281 0.347656 30.75 0.203125 C 29.882812 0.0664062 29.054688 0 28.265625 0 C 27.515625 0 26.867188 0.03125 26.328125 0.09375 C 25.796875 0.164062 25.226562 0.25 24.625 0.34375 C 23.695312 0.4375 22.941406 0.226562 22.359375 -0.28125 C 21.773438 -0.789062 21.484375 -1.515625 21.484375 -2.453125 L 21.484375 -13.921875 C 21.484375 -16.160156 21.25 -17.863281 20.78125 -19.03125 C 20.3125 -20.195312 19.472656 -20.78125 18.265625 -20.78125 C 17.191406 -20.78125 16.328125 -20.226562 15.671875 -19.125 C 15.015625 -18.03125 14.6875 -15.785156 14.6875 -12.390625 L 14.6875 -9.03125 C 14.6875 -7.394531 14.800781 -6.15625 15.03125 -5.3125 C 15.269531 -4.476562 15.550781 -3.863281 15.875 -3.46875 C 16.207031 -3.070312 16.488281 -2.742188 16.71875 -2.484375 C 16.957031 -2.222656 17.078125 -1.835938 17.078125 -1.328125 C 17.078125 -0.628906 16.804688 -0.164062 16.265625 0.0625 C 15.734375 0.300781 15.070312 0.421875 14.28125 0.421875 C 13.382812 0.421875 12.457031 0.347656 11.5 0.203125 C 10.550781 0.0664062 9.726562 0 9.03125 0 Z M 9.03125 0 "/></g></g></g><g fill="#000000" fill-opacity="1"><g transform="translate(359.685066, 279.853565)"><g/></g></g><g fill="#000000" fill-opacity="1"><g transform="translate(370.179372, 279.853565)"><g><path d="M 0.703125 -33.65625 C 0.703125 -34.351562 0.96875 -34.816406 1.5 -35.046875 C 2.039062 -35.285156 2.707031 -35.40625 3.5 -35.40625 C 4.34375 -35.40625 5.238281 -35.332031 6.1875 -35.1875 C 7.144531 -35.050781 7.972656 -34.984375 8.671875 -34.984375 C 9.367188 -34.984375 10.195312 -35.050781 11.15625 -35.1875 C 12.113281 -35.332031 13.035156 -35.40625 13.921875 -35.40625 C 14.710938 -35.40625 15.375 -35.285156 15.90625 -35.046875 C 16.445312 -34.816406 16.71875 -34.351562 16.71875 -33.65625 C 16.71875 -33.144531 16.597656 -32.757812 16.359375 -32.5 C 16.128906 -32.238281 15.851562 -31.910156 15.53125 -31.515625 C 15.207031 -31.117188 14.925781 -30.5 14.6875 -29.65625 C 14.457031 -28.820312 14.34375 -27.585938 14.34375 -25.953125 L 14.34375 -19.171875 C 14.34375 -18.660156 14.4375 -18.367188 14.625 -18.296875 C 14.8125 -18.222656 15.066406 -18.398438 15.390625 -18.828125 C 16.140625 -19.847656 16.988281 -21 17.9375 -22.28125 C 18.894531 -23.5625 19.734375 -24.773438 20.453125 -25.921875 C 21.179688 -27.066406 21.59375 -27.894531 21.6875 -28.40625 C 21.925781 -29.53125 21.914062 -30.335938 21.65625 -30.828125 C 21.394531 -31.316406 21.101562 -31.742188 20.78125 -32.109375 C 20.457031 -32.484375 20.296875 -33 20.296875 -33.65625 C 20.296875 -34.351562 20.523438 -34.816406 20.984375 -35.046875 C 21.453125 -35.285156 22.0625 -35.40625 22.8125 -35.40625 C 23.550781 -35.40625 24.363281 -35.332031 25.25 -35.1875 C 26.144531 -35.050781 26.941406 -34.984375 27.640625 -34.984375 C 28.335938 -34.984375 29.117188 -35.050781 29.984375 -35.1875 C 30.847656 -35.332031 31.648438 -35.40625 32.390625 -35.40625 C 33.085938 -35.40625 33.671875 -35.285156 34.140625 -35.046875 C 34.609375 -34.816406 34.84375 -34.351562 34.84375 -33.65625 C 34.84375 -32.90625 34.503906 -32.273438 33.828125 -31.765625 C 33.148438 -31.253906 32.191406 -30.671875 30.953125 -30.015625 C 29.722656 -29.359375 28.242188 -28.359375 26.515625 -27.015625 C 25.773438 -26.398438 25.144531 -25.882812 24.625 -25.46875 C 24.113281 -25.050781 23.859375 -24.796875 23.859375 -24.703125 C 23.859375 -24.609375 23.914062 -24.546875 24.03125 -24.515625 C 24.144531 -24.492188 24.554688 -24.34375 25.265625 -24.0625 C 26.335938 -23.601562 27.316406 -22.601562 28.203125 -21.0625 C 29.085938 -19.519531 29.898438 -17.742188 30.640625 -15.734375 C 31.390625 -13.734375 32.078125 -11.765625 32.703125 -9.828125 C 33.335938 -7.890625 33.9375 -6.316406 34.5 -5.109375 C 34.914062 -4.265625 35.34375 -3.65625 35.78125 -3.28125 C 36.226562 -2.914062 36.613281 -2.613281 36.9375 -2.375 C 37.269531 -2.144531 37.4375 -1.75 37.4375 -1.1875 C 37.4375 -0.53125 37.175781 -0.0859375 36.65625 0.140625 C 36.144531 0.367188 35.492188 0.484375 34.703125 0.484375 C 33.773438 0.484375 32.757812 0.398438 31.65625 0.234375 C 30.5625 0.078125 29.550781 0 28.625 0 C 27.914062 0 27.035156 0.0664062 25.984375 0.203125 C 24.941406 0.347656 23.953125 0.421875 23.015625 0.421875 C 22.128906 0.421875 21.367188 0.300781 20.734375 0.0625 C 20.109375 -0.164062 19.796875 -0.628906 19.796875 -1.328125 C 19.796875 -1.835938 19.945312 -2.28125 20.25 -2.65625 C 20.550781 -3.03125 20.84375 -3.472656 21.125 -3.984375 C 21.40625 -4.503906 21.546875 -5.226562 21.546875 -6.15625 C 21.546875 -7.09375 21.222656 -8.351562 20.578125 -9.9375 C 19.960938 -11.425781 19.375 -12.539062 18.8125 -13.28125 C 18.257812 -14.03125 17.421875 -14.40625 16.296875 -14.40625 C 15.503906 -14.40625 14.976562 -14.066406 14.71875 -13.390625 C 14.46875 -12.722656 14.34375 -12.0625 14.34375 -11.40625 L 14.34375 -9.03125 C 14.34375 -7.394531 14.457031 -6.15625 14.6875 -5.3125 C 14.925781 -4.476562 15.207031 -3.863281 15.53125 -3.46875 C 15.851562 -3.070312 16.128906 -2.742188 16.359375 -2.484375 C 16.597656 -2.222656 16.71875 -1.835938 16.71875 -1.328125 C 16.71875 -0.628906 16.445312 -0.164062 15.90625 0.0625 C 15.375 0.300781 14.710938 0.421875 13.921875 0.421875 C 13.035156 0.421875 12.113281 0.347656 11.15625 0.203125 C 10.195312 0.0664062 9.367188 0 8.671875 0 C 7.972656 0 7.144531 0.0664062 6.1875 0.203125 C 5.238281 0.347656 4.34375 0.421875 3.5 0.421875 C 2.707031 0.421875 2.039062 0.300781 1.5 0.0625 C 0.96875 -0.164062 0.703125 -0.628906 0.703125 -1.328125 C 0.703125 -1.835938 0.816406 -2.222656 1.046875 -2.484375 C 1.285156 -2.742188 1.566406 -3.070312 1.890625 -3.46875 C 2.210938 -3.863281 2.488281 -4.476562 2.71875 -5.3125 C 2.957031 -6.15625 3.078125 -7.394531 3.078125 -9.03125 L 3.078125 -25.953125 C 3.078125 -27.585938 2.957031 -28.820312 2.71875 -29.65625 C 2.488281 -30.5 2.210938 -31.117188 1.890625 -31.515625 C 1.566406 -31.910156 1.285156 -32.238281 1.046875 -32.5 C 0.816406 -32.757812 0.703125 -33.144531 0.703125 -33.65625 Z M 0.703125 -33.65625 "/></g></g></g><g fill="#000000" fill-opacity="1"><g transform="translate(408.308692, 279.853565)"><g><path d="M 0.703125 -1.328125 C 0.703125 -1.835938 0.816406 -2.222656 1.046875 -2.484375 C 1.285156 -2.742188 1.566406 -3.070312 1.890625 -3.46875 C 2.210938 -3.863281 2.488281 -4.476562 2.71875 -5.3125 C 2.957031 -6.15625 3.078125 -7.394531 3.078125 -9.03125 C 3.078125 -11.175781 3.085938 -12.722656 3.109375 -13.671875 C 3.140625 -14.628906 3.15625 -15.328125 3.15625 -15.765625 C 3.15625 -16.210938 3.15625 -16.71875 3.15625 -17.28125 C 3.15625 -18.539062 2.953125 -19.414062 2.546875 -19.90625 C 2.148438 -20.394531 1.753906 -20.78125 1.359375 -21.0625 C 0.960938 -21.34375 0.765625 -21.785156 0.765625 -22.390625 C 0.765625 -23.085938 1 -23.5625 1.46875 -23.8125 C 1.9375 -24.070312 2.601562 -24.296875 3.46875 -24.484375 C 4.332031 -24.671875 5.367188 -24.976562 6.578125 -25.40625 C 8.066406 -25.957031 9.09375 -26.453125 9.65625 -26.890625 C 10.21875 -27.335938 10.632812 -27.703125 10.90625 -27.984375 C 11.1875 -28.265625 11.632812 -28.40625 12.25 -28.40625 C 13.082031 -28.40625 13.640625 -28.03125 13.921875 -27.28125 C 14.203125 -26.539062 14.34375 -25.65625 14.34375 -24.625 L 14.34375 -24.34375 C 14.34375 -23.175781 14.363281 -22.601562 14.40625 -22.625 C 14.457031 -22.65625 14.785156 -23.179688 15.390625 -24.203125 C 16.179688 -25.554688 17.285156 -26.59375 18.703125 -27.3125 C 20.128906 -28.039062 21.5 -28.40625 22.8125 -28.40625 C 25.375 -28.40625 27.023438 -27.859375 27.765625 -26.765625 C 28.515625 -25.671875 28.539062 -24.070312 27.84375 -21.96875 C 27.289062 -20.289062 26.789062 -19.132812 26.34375 -18.5 C 25.894531 -17.875 25.460938 -17.5625 25.046875 -17.5625 C 24.578125 -17.5625 24.0625 -17.835938 23.5 -18.390625 C 22.945312 -18.953125 22.332031 -19.5 21.65625 -20.03125 C 20.976562 -20.570312 20.148438 -20.84375 19.171875 -20.84375 C 18.609375 -20.84375 17.941406 -20.65625 17.171875 -20.28125 C 16.398438 -19.914062 15.734375 -19.242188 15.171875 -18.265625 C 14.617188 -17.285156 14.34375 -15.910156 14.34375 -14.140625 L 14.34375 -9.03125 C 14.34375 -7.394531 14.457031 -6.15625 14.6875 -5.3125 C 14.925781 -4.476562 15.207031 -3.863281 15.53125 -3.46875 C 15.851562 -3.070312 16.128906 -2.742188 16.359375 -2.484375 C 16.597656 -2.222656 16.71875 -1.835938 16.71875 -1.328125 C 16.71875 -0.628906 16.445312 -0.164062 15.90625 0.0625 C 15.375 0.300781 14.710938 0.421875 13.921875 0.421875 C 13.035156 0.421875 12.113281 0.347656 11.15625 0.203125 C 10.195312 0.0664062 9.367188 0 8.671875 0 C 7.972656 0 7.144531 0.0664062 6.1875 0.203125 C 5.238281 0.347656 4.34375 0.421875 3.5 0.421875 C 2.707031 0.421875 2.039062 0.300781 1.5 0.0625 C 0.96875 -0.164062 0.703125 -0.628906 0.703125 -1.328125 Z M 0.703125 -1.328125 "/></g></g></g><g fill="#000000" fill-opacity="1"><g transform="translate(437.692757, 279.853565)"><g><path d="M 8.890625 0 C 8.191406 0 7.363281 0.0664062 6.40625 0.203125 C 5.445312 0.347656 4.546875 0.421875 3.703125 0.421875 C 2.910156 0.421875 2.242188 0.300781 1.703125 0.0625 C 1.171875 -0.164062 0.90625 -0.628906 0.90625 -1.328125 C 0.90625 -1.835938 1.019531 -2.222656 1.25 -2.484375 C 1.488281 -2.742188 1.769531 -3.070312 2.09375 -3.46875 C 2.425781 -3.863281 2.707031 -4.476562 2.9375 -5.3125 C 3.164062 -6.15625 3.28125 -7.394531 3.28125 -9.03125 C 3.28125 -11.175781 3.289062 -12.722656 3.3125 -13.671875 C 3.34375 -14.628906 3.359375 -15.328125 3.359375 -15.765625 C 3.359375 -16.210938 3.359375 -16.71875 3.359375 -17.28125 C 3.359375 -18.539062 3.160156 -19.414062 2.765625 -19.90625 C 2.367188 -20.394531 1.972656 -20.78125 1.578125 -21.0625 C 1.179688 -21.34375 0.984375 -21.785156 0.984375 -22.390625 C 0.984375 -23.085938 1.210938 -23.5625 1.671875 -23.8125 C 2.140625 -24.070312 2.804688 -24.296875 3.671875 -24.484375 C 4.535156 -24.671875 5.570312 -24.976562 6.78125 -25.40625 C 8.28125 -25.957031 9.304688 -26.453125 9.859375 -26.890625 C 10.421875 -27.335938 10.84375 -27.703125 11.125 -27.984375 C 11.40625 -28.265625 11.847656 -28.40625 12.453125 -28.40625 C 13.296875 -28.40625 13.851562 -28.03125 14.125 -27.28125 C 14.40625 -26.539062 14.546875 -25.65625 14.546875 -24.625 L 14.546875 -9.03125 C 14.546875 -7.394531 14.660156 -6.15625 14.890625 -5.3125 C 15.128906 -4.476562 15.410156 -3.863281 15.734375 -3.46875 C 16.066406 -3.070312 16.347656 -2.742188 16.578125 -2.484375 C 16.816406 -2.222656 16.9375 -1.835938 16.9375 -1.328125 C 16.9375 -0.628906 16.664062 -0.164062 16.125 0.0625 C 15.59375 0.300781 14.929688 0.421875 14.140625 0.421875 C 13.242188 0.421875 12.316406 0.347656 11.359375 0.203125 C 10.410156 0.0664062 9.585938 0 8.890625 0 Z M 0.90625 -30.359375 C 0.4375 -31.765625 0.679688 -33.28125 1.640625 -34.90625 C 2.597656 -36.539062 4.054688 -37.875 6.015625 -38.90625 C 7.648438 -39.738281 9.144531 -40.15625 10.5 -40.15625 C 12.550781 -40.15625 13.878906 -39.316406 14.484375 -37.640625 C 14.992188 -36.191406 14.769531 -34.675781 13.8125 -33.09375 C 12.863281 -31.507812 11.410156 -30.179688 9.453125 -29.109375 C 7.765625 -28.265625 6.242188 -27.84375 4.890625 -27.84375 C 2.890625 -27.84375 1.5625 -28.679688 0.90625 -30.359375 Z M 0.90625 -30.359375 "/></g></g></g><g fill="#000000" fill-opacity="1"><g transform="translate(455.253225, 279.853565)"><g><path d="M 1.40625 -6.71875 C 1.40625 -7.644531 1.671875 -8.390625 2.203125 -8.953125 C 2.742188 -9.515625 3.523438 -9.796875 4.546875 -9.796875 C 5.429688 -9.796875 6.15625 -9.46875 6.71875 -8.8125 C 7.28125 -8.164062 7.863281 -7.421875 8.46875 -6.578125 C 9.070312 -5.734375 9.835938 -4.984375 10.765625 -4.328125 C 11.703125 -3.679688 12.960938 -3.359375 14.546875 -3.359375 C 15.765625 -3.359375 16.722656 -3.484375 17.421875 -3.734375 C 18.117188 -3.992188 18.46875 -4.59375 18.46875 -5.53125 C 18.46875 -6.269531 18.054688 -6.875 17.234375 -7.34375 C 16.421875 -7.8125 15.382812 -8.242188 14.125 -8.640625 C 12.875 -9.035156 11.535156 -9.476562 10.109375 -9.96875 C 8.679688 -10.457031 7.335938 -11.070312 6.078125 -11.8125 C 4.828125 -12.5625 3.789062 -13.53125 2.96875 -14.71875 C 2.15625 -15.914062 1.75 -17.421875 1.75 -19.234375 C 1.75 -21.285156 2.210938 -22.929688 3.140625 -24.171875 C 4.078125 -25.410156 5.242188 -26.332031 6.640625 -26.9375 C 8.046875 -27.539062 9.4375 -27.9375 10.8125 -28.125 C 12.1875 -28.3125 13.316406 -28.40625 14.203125 -28.40625 C 16.578125 -28.40625 18.789062 -28.125 20.84375 -27.5625 C 22.894531 -27.007812 24.550781 -26.179688 25.8125 -25.078125 C 27.070312 -23.984375 27.703125 -22.644531 27.703125 -21.0625 C 27.703125 -20.269531 27.410156 -19.59375 26.828125 -19.03125 C 26.242188 -18.46875 25.554688 -18.1875 24.765625 -18.1875 C 23.554688 -18.1875 22.578125 -18.523438 21.828125 -19.203125 C 21.078125 -19.878906 20.398438 -20.648438 19.796875 -21.515625 C 19.191406 -22.378906 18.492188 -23.148438 17.703125 -23.828125 C 16.910156 -24.503906 15.882812 -24.84375 14.625 -24.84375 C 13.363281 -24.84375 12.535156 -24.550781 12.140625 -23.96875 C 11.742188 -23.382812 11.546875 -22.789062 11.546875 -22.1875 C 11.546875 -21.289062 11.941406 -20.609375 12.734375 -20.140625 C 13.523438 -19.679688 14.550781 -19.300781 15.8125 -19 C 17.070312 -18.695312 18.398438 -18.359375 19.796875 -17.984375 C 21.203125 -17.609375 22.53125 -17.101562 23.78125 -16.46875 C 25.039062 -15.84375 26.066406 -14.957031 26.859375 -13.8125 C 27.660156 -12.675781 28.0625 -11.175781 28.0625 -9.3125 C 28.0625 -6.925781 27.367188 -5.019531 25.984375 -3.59375 C 24.609375 -2.175781 22.847656 -1.148438 20.703125 -0.515625 C 18.554688 0.109375 16.296875 0.421875 13.921875 0.421875 C 12.941406 0.421875 11.75 0.300781 10.34375 0.0625 C 8.945312 -0.164062 7.5625 -0.546875 6.1875 -1.078125 C 4.8125 -1.617188 3.671875 -2.34375 2.765625 -3.25 C 1.859375 -4.164062 1.40625 -5.320312 1.40625 -6.71875 Z M 1.40625 -6.71875 "/></g></g></g><g fill="#000000" fill-opacity="1"><g transform="translate(484.707225, 279.853565)"><g><path d="M 0.703125 -26.3125 C 0.703125 -27.007812 0.929688 -27.472656 1.390625 -27.703125 C 1.859375 -27.941406 2.515625 -28.175781 3.359375 -28.40625 C 4.203125 -28.632812 5.179688 -29.101562 6.296875 -29.8125 C 7.785156 -30.738281 8.859375 -31.632812 9.515625 -32.5 C 10.171875 -33.363281 10.679688 -34.0625 11.046875 -34.59375 C 11.421875 -35.132812 11.914062 -35.40625 12.53125 -35.40625 C 13.363281 -35.40625 13.863281 -34.984375 14.03125 -34.140625 C 14.195312 -33.304688 14.28125 -32.375 14.28125 -31.34375 L 14.28125 -28.75 C 14.28125 -28.238281 14.535156 -27.984375 15.046875 -27.984375 L 16.15625 -27.984375 C 17.320312 -27.984375 17.90625 -27.398438 17.90625 -26.234375 C 17.90625 -25.023438 17.320312 -24.421875 16.15625 -24.421875 L 15.046875 -24.421875 C 14.535156 -24.421875 14.28125 -24.164062 14.28125 -23.65625 L 14.28125 -15.46875 C 14.28125 -12.476562 14.3125 -10.304688 14.375 -8.953125 C 14.445312 -7.597656 14.8125 -6.597656 15.46875 -5.953125 C 15.882812 -5.578125 16.234375 -5.34375 16.515625 -5.25 C 16.796875 -5.15625 17.003906 -5.035156 17.140625 -4.890625 C 17.285156 -4.753906 17.359375 -4.429688 17.359375 -3.921875 C 17.359375 -3.035156 16.851562 -2.085938 15.84375 -1.078125 C 14.84375 -0.078125 13.082031 0.421875 10.5625 0.421875 C 7.625 0.421875 5.628906 -0.640625 4.578125 -2.765625 C 3.535156 -4.890625 3.015625 -7.65625 3.015625 -11.0625 L 3.078125 -21.203125 C 3.078125 -22.460938 2.878906 -23.335938 2.484375 -23.828125 C 2.085938 -24.316406 1.691406 -24.703125 1.296875 -24.984375 C 0.898438 -25.265625 0.703125 -25.707031 0.703125 -26.3125 Z M 0.703125 -26.3125 "/></g></g></g><g fill="#000000" fill-opacity="1"><g transform="translate(502.967317, 279.853565)"><g><path d="M 0 4.765625 C 0 3.691406 0.335938 2.695312 1.015625 1.78125 C 1.691406 0.875 2.679688 0.421875 3.984375 0.421875 C 5.203125 0.421875 6.085938 0.628906 6.640625 1.046875 C 7.203125 1.460938 7.609375 1.972656 7.859375 2.578125 C 8.117188 3.191406 8.332031 3.800781 8.5 4.40625 C 8.664062 5.007812 8.898438 5.519531 9.203125 5.9375 C 9.503906 6.363281 10.03125 6.578125 10.78125 6.578125 C 12.125 6.578125 13.078125 5.96875 13.640625 4.75 C 14.203125 3.539062 14.203125 2.070312 13.640625 0.34375 C 13.171875 -1.09375 12.609375 -2.722656 11.953125 -4.546875 C 11.304688 -6.367188 10.644531 -8.15625 9.96875 -9.90625 C 9.289062 -11.65625 8.695312 -13.171875 8.1875 -14.453125 C 7.675781 -15.734375 7.347656 -16.582031 7.203125 -17 C 6.316406 -19.144531 5.507812 -20.765625 4.78125 -21.859375 C 4.0625 -22.960938 3.445312 -23.742188 2.9375 -24.203125 C 2.425781 -24.671875 2.03125 -25.054688 1.75 -25.359375 C 1.46875 -25.660156 1.328125 -26.09375 1.328125 -26.65625 C 1.328125 -27.351562 1.609375 -27.816406 2.171875 -28.046875 C 2.734375 -28.285156 3.410156 -28.40625 4.203125 -28.40625 C 5.085938 -28.40625 6.019531 -28.332031 7 -28.1875 C 7.976562 -28.050781 8.816406 -27.984375 9.515625 -27.984375 C 10.398438 -27.984375 11.398438 -28.050781 12.515625 -28.1875 C 13.640625 -28.332031 14.671875 -28.40625 15.609375 -28.40625 C 16.535156 -28.40625 17.289062 -28.285156 17.875 -28.046875 C 18.457031 -27.816406 18.75 -27.351562 18.75 -26.65625 C 18.75 -26 18.550781 -25.53125 18.15625 -25.25 C 17.757812 -24.976562 17.5625 -24.421875 17.5625 -23.578125 C 17.5625 -22.785156 17.703125 -21.769531 17.984375 -20.53125 C 18.265625 -19.300781 18.625 -18.054688 19.0625 -16.796875 C 19.507812 -15.535156 19.921875 -14.4375 20.296875 -13.5 C 20.710938 -12.476562 21.15625 -12.503906 21.625 -13.578125 C 22.082031 -14.554688 22.519531 -15.695312 22.9375 -17 C 23.363281 -18.3125 23.726562 -19.570312 24.03125 -20.78125 C 24.332031 -21.988281 24.484375 -22.921875 24.484375 -23.578125 C 24.484375 -24.421875 24.257812 -25.015625 23.8125 -25.359375 C 23.375 -25.710938 23.15625 -26.21875 23.15625 -26.875 C 23.15625 -27.476562 23.34375 -27.882812 23.71875 -28.09375 C 24.09375 -28.300781 24.515625 -28.40625 24.984375 -28.40625 C 25.535156 -28.40625 26.125 -28.332031 26.75 -28.1875 C 27.382812 -28.050781 27.914062 -27.984375 28.34375 -27.984375 C 28.757812 -27.984375 29.28125 -28.050781 29.90625 -28.1875 C 30.539062 -28.332031 31.113281 -28.40625 31.625 -28.40625 C 32.132812 -28.40625 32.539062 -28.3125 32.84375 -28.125 C 33.15625 -27.9375 33.3125 -27.566406 33.3125 -27.015625 C 33.3125 -26.453125 33.171875 -26.019531 32.890625 -25.71875 C 32.609375 -25.414062 32.195312 -25.03125 31.65625 -24.5625 C 31.125 -24.09375 30.492188 -23.320312 29.765625 -22.25 C 29.046875 -21.175781 28.265625 -19.546875 27.421875 -17.359375 C 27.285156 -16.929688 26.984375 -16.0625 26.515625 -14.75 C 26.046875 -13.445312 25.484375 -11.910156 24.828125 -10.140625 C 24.179688 -8.367188 23.519531 -6.582031 22.84375 -4.78125 C 22.164062 -2.988281 21.546875 -1.394531 20.984375 0 C 19.679688 3.125 17.929688 5.78125 15.734375 7.96875 C 13.546875 10.164062 10.867188 11.265625 7.703125 11.265625 C 6.484375 11.265625 5.28125 11.050781 4.09375 10.625 C 2.90625 10.207031 1.925781 9.519531 1.15625 8.5625 C 0.382812 7.613281 0 6.347656 0 4.765625 Z M 0 4.765625 "/></g></g></g><g fill="#000000" fill-opacity="1"><g transform="translate(536.619067, 279.853565)"><g/></g></g><g fill="#000000" fill-opacity="1"><g transform="translate(547.113373, 279.853565)"><g><path d="M 8.671875 0 C 7.972656 0 7.144531 0.0664062 6.1875 0.203125 C 5.238281 0.347656 4.34375 0.421875 3.5 0.421875 C 2.707031 0.421875 2.039062 0.300781 1.5 0.0625 C 0.96875 -0.164062 0.703125 -0.628906 0.703125 -1.328125 C 0.703125 -1.835938 0.816406 -2.222656 1.046875 -2.484375 C 1.285156 -2.742188 1.566406 -3.070312 1.890625 -3.46875 C 2.210938 -3.863281 2.488281 -4.476562 2.71875 -5.3125 C 2.957031 -6.15625 3.078125 -7.394531 3.078125 -9.03125 L 3.078125 -25.953125 C 3.078125 -27.585938 2.957031 -28.820312 2.71875 -29.65625 C 2.488281 -30.5 2.210938 -31.117188 1.890625 -31.515625 C 1.566406 -31.910156 1.285156 -32.238281 1.046875 -32.5 C 0.816406 -32.757812 0.703125 -33.144531 0.703125 -33.65625 C 0.703125 -34.351562 0.96875 -34.816406 1.5 -35.046875 C 2.039062 -35.285156 2.707031 -35.40625 3.5 -35.40625 C 4.34375 -35.40625 5.238281 -35.332031 6.1875 -35.1875 C 7.144531 -35.050781 7.972656 -34.984375 8.671875 -34.984375 C 9.367188 -34.984375 10.226562 -35.015625 11.25 -35.078125 C 12.28125 -35.148438 13.296875 -35.222656 14.296875 -35.296875 C 15.304688 -35.367188 16.113281 -35.40625 16.71875 -35.40625 C 22.269531 -35.40625 26.597656 -33.851562 29.703125 -30.75 C 32.804688 -27.644531 34.359375 -23.222656 34.359375 -17.484375 C 34.359375 -11.753906 32.804688 -7.335938 29.703125 -4.234375 C 26.597656 -1.128906 22.269531 0.421875 16.71875 0.421875 C 16.113281 0.421875 15.304688 0.382812 14.296875 0.3125 C 13.296875 0.238281 12.28125 0.164062 11.25 0.09375 C 10.226562 0.03125 9.367188 0 8.671875 0 Z M 14.40625 -5.109375 C 14.40625 -4.078125 14.988281 -3.5625 16.15625 -3.5625 C 17.507812 -3.5625 18.59375 -4.023438 19.40625 -4.953125 C 20.226562 -5.890625 20.859375 -7.09375 21.296875 -8.5625 C 21.742188 -10.039062 22.046875 -11.570312 22.203125 -13.15625 C 22.367188 -14.738281 22.453125 -16.179688 22.453125 -17.484375 C 22.453125 -18.742188 22.359375 -20.144531 22.171875 -21.6875 C 21.992188 -23.226562 21.679688 -24.707031 21.234375 -26.125 C 20.796875 -27.550781 20.164062 -28.726562 19.34375 -29.65625 C 18.53125 -30.59375 17.46875 -31.0625 16.15625 -31.0625 C 14.988281 -31.0625 14.40625 -30.550781 14.40625 -29.53125 Z M 14.40625 -5.109375 "/></g></g></g><g fill="#000000" fill-opacity="1"><g transform="translate(582.863951, 279.853565)"><g><path d="M 16.859375 0.421875 C 14.390625 0.421875 11.960938 -0.0664062 9.578125 -1.046875 C 7.203125 -2.023438 5.242188 -3.5625 3.703125 -5.65625 C 2.171875 -7.757812 1.40625 -10.515625 1.40625 -13.921875 C 1.40625 -16.816406 2.03125 -19.347656 3.28125 -21.515625 C 4.539062 -23.679688 6.289062 -25.367188 8.53125 -26.578125 C 10.769531 -27.796875 13.359375 -28.40625 16.296875 -28.40625 C 19.191406 -28.40625 21.546875 -28.054688 23.359375 -27.359375 C 25.179688 -26.660156 26.59375 -25.757812 27.59375 -24.65625 C 28.601562 -23.5625 29.289062 -22.441406 29.65625 -21.296875 C 30.03125 -20.160156 30.21875 -19.171875 30.21875 -18.328125 C 30.21875 -15.992188 29.492188 -14.09375 28.046875 -12.625 C 26.609375 -11.15625 24.769531 -10.082031 22.53125 -9.40625 C 20.289062 -8.726562 18.003906 -8.390625 15.671875 -8.390625 C 15.015625 -8.390625 14.535156 -8.15625 14.234375 -7.6875 C 13.929688 -7.226562 13.835938 -6.691406 13.953125 -6.078125 C 14.078125 -5.472656 14.453125 -4.9375 15.078125 -4.46875 C 15.703125 -4.007812 16.597656 -3.78125 17.765625 -3.78125 C 19.453125 -3.78125 20.785156 -4.082031 21.765625 -4.6875 C 22.742188 -5.289062 23.523438 -5.988281 24.109375 -6.78125 C 24.691406 -7.570312 25.25 -8.269531 25.78125 -8.875 C 26.320312 -9.488281 27.035156 -9.796875 27.921875 -9.796875 C 28.710938 -9.796875 29.304688 -9.550781 29.703125 -9.0625 C 30.097656 -8.570312 30.296875 -8.023438 30.296875 -7.421875 C 30.296875 -5.828125 29.675781 -4.445312 28.4375 -3.28125 C 27.207031 -2.125 25.566406 -1.21875 23.515625 -0.5625 C 21.460938 0.09375 19.242188 0.421875 16.859375 0.421875 Z M 16.296875 -24.84375 C 15.316406 -24.84375 14.535156 -24.257812 13.953125 -23.09375 C 13.367188 -21.925781 13.078125 -20.363281 13.078125 -18.40625 C 13.078125 -16.445312 13.367188 -14.882812 13.953125 -13.71875 C 14.535156 -12.550781 15.316406 -11.96875 16.296875 -11.96875 C 17.273438 -11.96875 18.054688 -12.550781 18.640625 -13.71875 C 19.222656 -14.882812 19.515625 -16.445312 19.515625 -18.40625 C 19.515625 -20.363281 19.222656 -21.925781 18.640625 -23.09375 C 18.054688 -24.257812 17.273438 -24.84375 16.296875 -24.84375 Z M 16.296875 -24.84375 "/></g></g></g><g fill="#000000" fill-opacity="1"><g transform="translate(614.556765, 279.853565)"><g/></g></g><g fill="#000000" fill-opacity="1"><g transform="translate(625.051094, 279.853565)"><g><path d="M 0.625 -33.65625 C 0.625 -34.351562 0.890625 -34.816406 1.421875 -35.046875 C 1.960938 -35.285156 2.628906 -35.40625 3.421875 -35.40625 C 4.265625 -35.40625 5.164062 -35.332031 6.125 -35.1875 C 7.082031 -35.050781 7.910156 -34.984375 8.609375 -34.984375 C 9.304688 -34.984375 10.132812 -35.050781 11.09375 -35.1875 C 12.050781 -35.332031 12.972656 -35.40625 13.859375 -35.40625 C 14.648438 -35.40625 15.3125 -35.285156 15.84375 -35.046875 C 16.382812 -34.816406 16.65625 -34.351562 16.65625 -33.65625 C 16.65625 -33.144531 16.535156 -32.757812 16.296875 -32.5 C 16.066406 -32.238281 15.785156 -31.910156 15.453125 -31.515625 C 15.128906 -31.117188 14.851562 -30.5 14.625 -29.65625 C 14.394531 -28.820312 14.28125 -27.585938 14.28125 -25.953125 L 14.28125 -4.890625 C 14.28125 -4.285156 14.460938 -3.878906 14.828125 -3.671875 C 15.203125 -3.460938 15.625 -3.359375 16.09375 -3.359375 C 16.5625 -3.359375 16.957031 -3.359375 17.28125 -3.359375 C 18.3125 -3.359375 19.253906 -3.726562 20.109375 -4.46875 C 20.972656 -5.21875 21.765625 -6.140625 22.484375 -7.234375 C 23.210938 -8.335938 23.890625 -9.4375 24.515625 -10.53125 C 25.148438 -11.625 25.78125 -12.539062 26.40625 -13.28125 C 27.039062 -14.03125 27.6875 -14.40625 28.34375 -14.40625 C 29.457031 -14.40625 29.957031 -13.785156 29.84375 -12.546875 C 29.726562 -11.316406 29.226562 -9.117188 28.34375 -5.953125 C 28.007812 -4.691406 27.816406 -3.582031 27.765625 -2.625 C 27.722656 -1.664062 27.5625 -0.914062 27.28125 -0.375 C 27.007812 0.15625 26.359375 0.421875 25.328125 0.421875 C 21.828125 0.421875 18.710938 0.347656 15.984375 0.203125 C 13.253906 0.0664062 10.769531 0 8.53125 0 C 7.414062 0 6.367188 0.0664062 5.390625 0.203125 C 4.410156 0.347656 3.546875 0.421875 2.796875 0.421875 C 2.140625 0.421875 1.613281 0.300781 1.21875 0.0625 C 0.820312 -0.164062 0.625 -0.628906 0.625 -1.328125 C 0.625 -1.835938 0.738281 -2.222656 0.96875 -2.484375 C 1.207031 -2.742188 1.488281 -3.070312 1.8125 -3.46875 C 2.144531 -3.863281 2.425781 -4.476562 2.65625 -5.3125 C 2.894531 -6.15625 3.015625 -7.394531 3.015625 -9.03125 L 3.015625 -25.953125 C 3.015625 -27.585938 2.894531 -28.820312 2.65625 -29.65625 C 2.425781 -30.5 2.144531 -31.117188 1.8125 -31.515625 C 1.488281 -31.910156 1.207031 -32.238281 0.96875 -32.5 C 0.738281 -32.757812 0.625 -33.144531 0.625 -33.65625 Z M 0.625 -33.65625 "/></g></g></g><g fill="#000000" fill-opacity="1"><g transform="translate(655.134784, 279.853565)"><g><path d="M 9.09375 0.421875 C 6.476562 0.421875 4.539062 -0.347656 3.28125 -1.890625 C 2.03125 -3.429688 1.40625 -5.273438 1.40625 -7.421875 C 1.40625 -10.546875 2.566406 -13.003906 4.890625 -14.796875 C 7.222656 -16.585938 10.257812 -17.882812 14 -18.6875 C 17.539062 -19.425781 19.3125 -20.59375 19.3125 -22.1875 C 19.3125 -22.789062 19.050781 -23.382812 18.53125 -23.96875 C 18.019531 -24.550781 17.140625 -24.84375 15.890625 -24.84375 C 14.628906 -24.84375 13.597656 -24.503906 12.796875 -23.828125 C 12.003906 -23.148438 11.304688 -22.378906 10.703125 -21.515625 C 10.097656 -20.648438 9.429688 -19.878906 8.703125 -19.203125 C 7.984375 -18.523438 7.019531 -18.1875 5.8125 -18.1875 C 5.019531 -18.1875 4.332031 -18.46875 3.75 -19.03125 C 3.164062 -19.59375 2.875 -20.269531 2.875 -21.0625 C 2.875 -22.644531 3.5 -23.984375 4.75 -25.078125 C 6.007812 -26.179688 7.65625 -27.007812 9.6875 -27.5625 C 11.71875 -28.125 13.921875 -28.40625 16.296875 -28.40625 C 18.867188 -28.40625 21.203125 -27.992188 23.296875 -27.171875 C 25.398438 -26.359375 27.078125 -24.992188 28.328125 -23.078125 C 29.585938 -21.171875 30.21875 -18.5625 30.21875 -15.25 L 30.21875 -9.03125 C 30.21875 -7.394531 30.332031 -6.15625 30.5625 -5.3125 C 30.800781 -4.476562 31.082031 -3.863281 31.40625 -3.46875 C 31.738281 -3.070312 32.019531 -2.742188 32.25 -2.484375 C 32.488281 -2.222656 32.609375 -1.835938 32.609375 -1.328125 C 32.609375 -0.628906 32.394531 -0.164062 31.96875 0.0625 C 31.550781 0.300781 31.015625 0.421875 30.359375 0.421875 C 29.660156 0.421875 28.890625 0.347656 28.046875 0.203125 C 27.210938 0.0664062 26.445312 0 25.75 0 C 25 0 24.34375 0.03125 23.78125 0.09375 C 23.226562 0.164062 22.648438 0.25 22.046875 0.34375 C 21.296875 0.4375 20.628906 0.34375 20.046875 0.0625 C 19.460938 -0.207031 19.125 -0.71875 19.03125 -1.46875 C 18.988281 -2.21875 18.875 -2.71875 18.6875 -2.96875 C 18.5 -3.226562 18.265625 -3.359375 17.984375 -3.359375 C 17.472656 -3.359375 16.804688 -3.039062 15.984375 -2.40625 C 15.171875 -1.78125 14.191406 -1.148438 13.046875 -0.515625 C 11.898438 0.109375 10.582031 0.421875 9.09375 0.421875 Z M 12.25 -10.28125 C 12.25 -8.925781 12.585938 -7.957031 13.265625 -7.375 C 13.941406 -6.789062 14.742188 -6.5 15.671875 -6.5 C 16.835938 -6.5 17.722656 -7 18.328125 -8 C 18.929688 -9.007812 19.234375 -10.191406 19.234375 -11.546875 L 19.234375 -14.90625 C 19.234375 -16.164062 18.648438 -16.492188 17.484375 -15.890625 C 16.742188 -15.515625 15.960938 -15.101562 15.140625 -14.65625 C 14.328125 -14.21875 13.640625 -13.671875 13.078125 -13.015625 C 12.523438 -12.359375 12.25 -11.445312 12.25 -10.28125 Z M 12.25 -10.28125 "/></g></g></g><g fill="#000000" fill-opacity="1"><g transform="translate(688.436721, 279.853565)"><g/></g></g><g fill="#000000" fill-opacity="1"><g transform="translate(698.93105, 279.853565)"><g><path d="M 1.40625 -17.484375 C 1.40625 -20.847656 2.140625 -23.878906 3.609375 -26.578125 C 5.078125 -29.285156 7.128906 -31.429688 9.765625 -33.015625 C 12.398438 -34.609375 15.421875 -35.40625 18.828125 -35.40625 C 20.171875 -35.40625 21.21875 -35.332031 21.96875 -35.1875 C 22.71875 -35.050781 23.601562 -34.984375 24.625 -34.984375 C 25.414062 -34.984375 26.160156 -35.050781 26.859375 -35.1875 C 27.566406 -35.332031 28.195312 -35.40625 28.75 -35.40625 C 29.125 -35.40625 29.453125 -35.332031 29.734375 -35.1875 C 30.015625 -35.050781 30.25 -34.773438 30.4375 -34.359375 C 31.226562 -32.398438 31.925781 -30.566406 32.53125 -28.859375 C 33.132812 -27.160156 33.445312 -25.785156 33.46875 -24.734375 C 33.5 -23.679688 32.953125 -23.15625 31.828125 -23.15625 C 30.804688 -23.15625 29.945312 -23.5625 29.25 -24.375 C 28.550781 -25.195312 27.828125 -26.15625 27.078125 -27.25 C 26.328125 -28.34375 25.425781 -29.296875 24.375 -30.109375 C 23.332031 -30.929688 21.945312 -31.34375 20.21875 -31.34375 C 18.582031 -31.34375 17.25 -30.6875 16.21875 -29.375 C 15.195312 -28.070312 14.453125 -26.367188 13.984375 -24.265625 C 13.523438 -22.171875 13.296875 -19.910156 13.296875 -17.484375 C 13.296875 -15.066406 13.523438 -12.785156 13.984375 -10.640625 C 14.453125 -8.492188 15.195312 -6.742188 16.21875 -5.390625 C 17.25 -4.035156 18.628906 -3.359375 20.359375 -3.359375 C 21.898438 -3.359375 23.054688 -3.726562 23.828125 -4.46875 C 24.597656 -5.21875 25.191406 -6.140625 25.609375 -7.234375 C 26.023438 -8.335938 26.40625 -9.4375 26.75 -10.53125 C 27.101562 -11.625 27.609375 -12.539062 28.265625 -13.28125 C 28.921875 -14.03125 29.878906 -14.40625 31.140625 -14.40625 C 32.585938 -14.40625 33.660156 -13.90625 34.359375 -12.90625 C 35.054688 -11.90625 35.3125 -10.671875 35.125 -9.203125 C 34.9375 -7.734375 34.25 -6.265625 33.0625 -4.796875 C 31.875 -3.328125 30.113281 -2.085938 27.78125 -1.078125 C 25.445312 -0.078125 22.460938 0.421875 18.828125 0.421875 C 15.273438 0.421875 12.191406 -0.367188 9.578125 -1.953125 C 6.972656 -3.546875 4.957031 -5.691406 3.53125 -8.390625 C 2.113281 -11.097656 1.40625 -14.128906 1.40625 -17.484375 Z M 1.40625 -17.484375 "/></g></g></g><g fill="#000000" fill-opacity="1"><g transform="translate(734.821567, 279.853565)"><g><path d="M 0.703125 -1.328125 C 0.703125 -1.835938 0.816406 -2.222656 1.046875 -2.484375 C 1.285156 -2.742188 1.566406 -3.070312 1.890625 -3.46875 C 2.210938 -3.863281 2.488281 -4.476562 2.71875 -5.3125 C 2.957031 -6.15625 3.078125 -7.394531 3.078125 -9.03125 C 3.078125 -11.175781 3.085938 -12.722656 3.109375 -13.671875 C 3.140625 -14.628906 3.15625 -15.328125 3.15625 -15.765625 C 3.15625 -16.210938 3.15625 -16.71875 3.15625 -17.28125 C 3.15625 -18.539062 2.953125 -19.414062 2.546875 -19.90625 C 2.148438 -20.394531 1.753906 -20.78125 1.359375 -21.0625 C 0.960938 -21.34375 0.765625 -21.785156 0.765625 -22.390625 C 0.765625 -23.085938 1 -23.5625 1.46875 -23.8125 C 1.9375 -24.070312 2.601562 -24.296875 3.46875 -24.484375 C 4.332031 -24.671875 5.367188 -24.976562 6.578125 -25.40625 C 8.066406 -25.957031 9.09375 -26.453125 9.65625 -26.890625 C 10.21875 -27.335938 10.632812 -27.703125 10.90625 -27.984375 C 11.1875 -28.265625 11.632812 -28.40625 12.25 -28.40625 C 13.082031 -28.40625 13.640625 -28.03125 13.921875 -27.28125 C 14.203125 -26.539062 14.34375 -25.65625 14.34375 -24.625 L 14.34375 -24.34375 C 14.34375 -23.175781 14.363281 -22.601562 14.40625 -22.625 C 14.457031 -22.65625 14.785156 -23.179688 15.390625 -24.203125 C 16.179688 -25.554688 17.285156 -26.59375 18.703125 -27.3125 C 20.128906 -28.039062 21.5 -28.40625 22.8125 -28.40625 C 25.375 -28.40625 27.023438 -27.859375 27.765625 -26.765625 C 28.515625 -25.671875 28.539062 -24.070312 27.84375 -21.96875 C 27.289062 -20.289062 26.789062 -19.132812 26.34375 -18.5 C 25.894531 -17.875 25.460938 -17.5625 25.046875 -17.5625 C 24.578125 -17.5625 24.0625 -17.835938 23.5 -18.390625 C 22.945312 -18.953125 22.332031 -19.5 21.65625 -20.03125 C 20.976562 -20.570312 20.148438 -20.84375 19.171875 -20.84375 C 18.609375 -20.84375 17.941406 -20.65625 17.171875 -20.28125 C 16.398438 -19.914062 15.734375 -19.242188 15.171875 -18.265625 C 14.617188 -17.285156 14.34375 -15.910156 14.34375 -14.140625 L 14.34375 -9.03125 C 14.34375 -7.394531 14.457031 -6.15625 14.6875 -5.3125 C 14.925781 -4.476562 15.207031 -3.863281 15.53125 -3.46875 C 15.851562 -3.070312 16.128906 -2.742188 16.359375 -2.484375 C 16.597656 -2.222656 16.71875 -1.835938 16.71875 -1.328125 C 16.71875 -0.628906 16.445312 -0.164062 15.90625 0.0625 C 15.375 0.300781 14.710938 0.421875 13.921875 0.421875 C 13.035156 0.421875 12.113281 0.347656 11.15625 0.203125 C 10.195312 0.0664062 9.367188 0 8.671875 0 C 7.972656 0 7.144531 0.0664062 6.1875 0.203125 C 5.238281 0.347656 4.34375 0.421875 3.5 0.421875 C 2.707031 0.421875 2.039062 0.300781 1.5 0.0625 C 0.96875 -0.164062 0.703125 -0.628906 0.703125 -1.328125 Z M 0.703125 -1.328125 "/></g></g></g><g fill="#000000" fill-opacity="1"><g transform="translate(764.205632, 279.853565)"><g><path d="M 0.703125 -22.390625 C 0.703125 -23.085938 0.929688 -23.5625 1.390625 -23.8125 C 1.859375 -24.070312 2.523438 -24.296875 3.390625 -24.484375 C 4.253906 -24.671875 5.289062 -24.976562 6.5 -25.40625 C 8 -25.957031 9.023438 -26.453125 9.578125 -26.890625 C 10.140625 -27.335938 10.5625 -27.703125 10.84375 -27.984375 C 11.125 -28.265625 11.566406 -28.40625 12.171875 -28.40625 C 13.015625 -28.40625 13.578125 -28.03125 13.859375 -27.28125 C 14.140625 -26.539062 14.28125 -25.65625 14.28125 -24.625 C 14.320312 -23.175781 14.351562 -22 14.375 -21.09375 C 14.394531 -20.1875 14.40625 -19.007812 14.40625 -17.5625 L 14.40625 -14.140625 C 14.40625 -11.191406 14.660156 -9.191406 15.171875 -8.140625 C 15.691406 -7.097656 16.488281 -6.578125 17.5625 -6.578125 C 18.632812 -6.578125 19.40625 -7.097656 19.875 -8.140625 C 20.34375 -9.191406 20.578125 -11.210938 20.578125 -14.203125 L 20.578125 -17.5625 C 20.578125 -18.726562 20.375 -19.539062 19.96875 -20 C 19.570312 -20.46875 19.175781 -20.84375 18.78125 -21.125 C 18.382812 -21.40625 18.1875 -21.828125 18.1875 -22.390625 C 18.1875 -23.085938 18.421875 -23.5625 18.890625 -23.8125 C 19.359375 -24.070312 20.023438 -24.296875 20.890625 -24.484375 C 21.753906 -24.671875 22.789062 -24.976562 24 -25.40625 C 25.488281 -25.957031 26.515625 -26.453125 27.078125 -26.890625 C 27.640625 -27.335938 28.054688 -27.703125 28.328125 -27.984375 C 28.609375 -28.265625 29.054688 -28.40625 29.671875 -28.40625 C 30.503906 -28.40625 31.0625 -28.03125 31.34375 -27.28125 C 31.625 -26.539062 31.765625 -25.65625 31.765625 -24.625 L 31.828125 -18.96875 C 31.828125 -16.863281 31.835938 -15.179688 31.859375 -13.921875 C 31.890625 -12.660156 31.90625 -11.65625 31.90625 -10.90625 C 31.90625 -10.164062 31.90625 -9.515625 31.90625 -8.953125 C 31.90625 -7.316406 32.019531 -6.078125 32.25 -5.234375 C 32.488281 -4.398438 32.769531 -3.785156 33.09375 -3.390625 C 33.414062 -2.992188 33.691406 -2.664062 33.921875 -2.40625 C 34.160156 -2.15625 34.28125 -1.773438 34.28125 -1.265625 C 34.28125 -0.554688 34.082031 -0.0859375 33.6875 0.140625 C 33.289062 0.367188 32.765625 0.484375 32.109375 0.484375 C 31.460938 0.484375 30.707031 0.410156 29.84375 0.265625 C 28.976562 0.128906 28.148438 0.0625 27.359375 0.0625 C 26.609375 0.0625 25.960938 0.0976562 25.421875 0.171875 C 24.890625 0.242188 24.320312 0.328125 23.71875 0.421875 C 22.832031 0.515625 22.109375 0.351562 21.546875 -0.0625 C 20.984375 -0.488281 20.660156 -1.097656 20.578125 -1.890625 C 20.390625 -3.285156 20.175781 -3.984375 19.9375 -3.984375 C 19.707031 -3.984375 19.125 -3.492188 18.1875 -2.515625 C 17.445312 -1.722656 16.363281 -1.035156 14.9375 -0.453125 C 13.507812 0.128906 12.171875 0.421875 10.921875 0.421875 C 8.773438 0.421875 7.128906 -0.0390625 5.984375 -0.96875 C 4.835938 -1.90625 4.066406 -3.070312 3.671875 -4.46875 C 3.273438 -5.875 3.078125 -7.300781 3.078125 -8.75 L 3.078125 -17.28125 C 3.078125 -18.539062 2.878906 -19.414062 2.484375 -19.90625 C 2.085938 -20.394531 1.691406 -20.78125 1.296875 -21.0625 C 0.898438 -21.34375 0.703125 -21.785156 0.703125 -22.390625 Z M 0.703125 -22.390625 "/></g></g></g><g fill="#000000" fill-opacity="1"><g transform="translate(799.186651, 279.853565)"><g><path d="M 0.90625 -22.046875 C 0.90625 -23.066406 0.832031 -24.066406 0.6875 -25.046875 C 0.550781 -26.023438 0.566406 -26.828125 0.734375 -27.453125 C 0.898438 -28.085938 1.425781 -28.40625 2.3125 -28.40625 C 3.613281 -28.40625 5.195312 -28.332031 7.0625 -28.1875 C 8.925781 -28.050781 11.144531 -27.984375 13.71875 -27.984375 C 15.582031 -27.984375 17.457031 -28.050781 19.34375 -28.1875 C 21.238281 -28.332031 23.1875 -28.40625 25.1875 -28.40625 C 26.3125 -28.40625 27.035156 -28.019531 27.359375 -27.25 C 27.679688 -26.476562 27.519531 -25.582031 26.875 -24.5625 L 14.625 -5.390625 C 14.34375 -4.972656 14.269531 -4.625 14.40625 -4.34375 C 14.550781 -4.0625 14.859375 -3.921875 15.328125 -3.921875 L 15.671875 -3.921875 C 17.066406 -3.921875 18.265625 -4.316406 19.265625 -5.109375 C 20.273438 -5.898438 21.175781 -6.820312 21.96875 -7.875 C 22.757812 -8.925781 23.492188 -9.847656 24.171875 -10.640625 C 24.847656 -11.429688 25.515625 -11.828125 26.171875 -11.828125 C 27.003906 -11.828125 27.503906 -11.554688 27.671875 -11.015625 C 27.835938 -10.484375 27.859375 -9.773438 27.734375 -8.890625 C 27.617188 -8.003906 27.539062 -7.023438 27.5 -5.953125 C 27.5 -4.921875 27.566406 -3.914062 27.703125 -2.9375 C 27.847656 -1.957031 27.847656 -1.148438 27.703125 -0.515625 C 27.566406 0.109375 27.03125 0.421875 26.09375 0.421875 C 25.113281 0.421875 23.632812 0.347656 21.65625 0.203125 C 19.675781 0.0664062 17.144531 0 14.0625 0 C 12.144531 0 10.3125 0.0664062 8.5625 0.203125 C 6.820312 0.347656 4.992188 0.421875 3.078125 0.421875 C 1.679688 0.421875 0.828125 -0.0195312 0.515625 -0.90625 C 0.210938 -1.789062 0.4375 -2.816406 1.1875 -3.984375 L 13.21875 -23.015625 C 13.6875 -23.710938 13.335938 -24.0625 12.171875 -24.0625 C 11.148438 -24.0625 10.171875 -23.664062 9.234375 -22.875 C 8.304688 -22.082031 7.429688 -21.160156 6.609375 -20.109375 C 5.796875 -19.066406 5.023438 -18.144531 4.296875 -17.34375 C 3.578125 -16.550781 2.890625 -16.15625 2.234375 -16.15625 C 1.398438 -16.15625 0.898438 -16.421875 0.734375 -16.953125 C 0.566406 -17.492188 0.550781 -18.21875 0.6875 -19.125 C 0.832031 -20.039062 0.90625 -21.015625 0.90625 -22.046875 Z M 0.90625 -22.046875 "/></g></g></g><g fill="#000000" fill-opacity="1"><g transform="translate(280.758351, 346.57185)"><g><path d="M 17.34375 0 L 13 0 L 11.84375 -3.28125 L 5.5625 -3.28125 L 4.4375 0 L 0.171875 0 L 6.546875 -16.796875 L 10.9375 -16.796875 Z M 6.671875 -6.78125 L 10.796875 -6.78125 L 8.734375 -12.609375 Z M 6.671875 -6.78125 "/></g></g></g><g fill="#000000" fill-opacity="1"><g transform="translate(298.245852, 346.57185)"><g/></g></g><g fill="#000000" fill-opacity="1"><g transform="translate(305.538313, 346.57185)"><g><path d="M 7.578125 0.3125 C 5.578125 0.3125 3.96875 -0.191406 2.75 -1.203125 C 1.539062 -2.222656 0.921875 -3.65625 0.890625 -5.5 L 5.03125 -5.5 C 5.0625 -4.726562 5.289062 -4.128906 5.71875 -3.703125 C 6.144531 -3.273438 6.757812 -3.0625 7.5625 -3.0625 C 8.3125 -3.0625 8.875 -3.207031 9.25 -3.5 C 9.632812 -3.789062 9.828125 -4.179688 9.828125 -4.671875 C 9.828125 -5.222656 9.578125 -5.644531 9.078125 -5.9375 C 8.585938 -6.226562 7.804688 -6.546875 6.734375 -6.890625 C 5.617188 -7.234375 4.695312 -7.582031 3.96875 -7.9375 C 3.238281 -8.289062 2.613281 -8.816406 2.09375 -9.515625 C 1.570312 -10.222656 1.3125 -11.148438 1.3125 -12.296875 C 1.3125 -13.222656 1.570312 -14.050781 2.09375 -14.78125 C 2.613281 -15.507812 3.335938 -16.078125 4.265625 -16.484375 C 5.191406 -16.890625 6.253906 -17.09375 7.453125 -17.09375 C 8.546875 -17.09375 9.5625 -16.894531 10.5 -16.5 C 11.445312 -16.101562 12.210938 -15.492188 12.796875 -14.671875 C 13.390625 -13.847656 13.695312 -12.832031 13.71875 -11.625 L 9.640625 -11.625 C 9.628906 -12.21875 9.441406 -12.710938 9.078125 -13.109375 C 8.710938 -13.515625 8.171875 -13.71875 7.453125 -13.71875 C 6.835938 -13.71875 6.359375 -13.582031 6.015625 -13.3125 C 5.671875 -13.039062 5.5 -12.671875 5.5 -12.203125 C 5.5 -11.660156 5.742188 -11.242188 6.234375 -10.953125 C 6.734375 -10.671875 7.507812 -10.363281 8.5625 -10.03125 C 9.675781 -9.6875 10.597656 -9.335938 11.328125 -8.984375 C 12.054688 -8.640625 12.679688 -8.109375 13.203125 -7.390625 C 13.734375 -6.679688 14 -5.742188 14 -4.578125 C 14 -3.679688 13.75 -2.859375 13.25 -2.109375 C 12.75 -1.367188 12.015625 -0.78125 11.046875 -0.34375 C 10.078125 0.09375 8.921875 0.3125 7.578125 0.3125 Z M 7.578125 0.3125 "/></g></g></g><g fill="#000000" fill-opacity="1"><g transform="translate(320.435072, 346.57185)"><g><path d="M 7.609375 0.3125 C 6.398438 0.3125 5.265625 0.0507812 4.203125 -0.46875 C 3.140625 -1 2.285156 -1.757812 1.640625 -2.75 C 0.992188 -3.75 0.671875 -4.910156 0.671875 -6.234375 C 0.671875 -7.546875 0.992188 -8.695312 1.640625 -9.6875 C 2.285156 -10.675781 3.140625 -11.4375 4.203125 -11.96875 C 5.265625 -12.507812 6.398438 -12.78125 7.609375 -12.78125 C 8.804688 -12.78125 9.929688 -12.507812 10.984375 -11.96875 C 12.035156 -11.4375 12.882812 -10.675781 13.53125 -9.6875 C 14.1875 -8.695312 14.515625 -7.546875 14.515625 -6.234375 C 14.515625 -4.910156 14.1875 -3.75 13.53125 -2.75 C 12.882812 -1.757812 12.035156 -1 10.984375 -0.46875 C 9.929688 0.0507812 8.804688 0.3125 7.609375 0.3125 Z M 7.609375 -3.265625 C 8.460938 -3.265625 9.164062 -3.539062 9.71875 -4.09375 C 10.269531 -4.65625 10.546875 -5.367188 10.546875 -6.234375 C 10.546875 -7.078125 10.269531 -7.78125 9.71875 -8.34375 C 9.164062 -8.914062 8.460938 -9.203125 7.609375 -9.203125 C 6.742188 -9.203125 6.035156 -8.914062 5.484375 -8.34375 C 4.929688 -7.78125 4.65625 -7.078125 4.65625 -6.234375 C 4.65625 -5.367188 4.929688 -4.65625 5.484375 -4.09375 C 6.035156 -3.539062 6.742188 -3.265625 7.609375 -3.265625 Z M 7.609375 -3.265625 "/></g></g></g><g fill="#000000" fill-opacity="1"><g transform="translate(335.619692, 346.57185)"><g><path d="M 8.296875 -14.671875 C 7.734375 -14.671875 7.285156 -14.503906 6.953125 -14.171875 C 6.617188 -13.847656 6.453125 -13.394531 6.453125 -12.8125 L 6.453125 -12.46875 L 9.3125 -12.46875 L 9.3125 -8.953125 L 6.453125 -8.953125 L 6.453125 0 L 2.453125 0 L 2.453125 -8.953125 L 0.40625 -8.953125 L 0.40625 -12.46875 L 2.453125 -12.46875 L 2.453125 -13.28125 C 2.453125 -14.757812 2.851562 -15.910156 3.65625 -16.734375 C 4.46875 -17.566406 5.613281 -17.984375 7.09375 -17.984375 L 9.3125 -17.984375 L 9.3125 -14.671875 Z M 8.296875 -14.671875 "/></g></g></g><g fill="#000000" fill-opacity="1"><g transform="translate(345.406938, 346.57185)"><g><path d="M 9.3125 -8.953125 L 6.453125 -8.953125 L 6.453125 -5.4375 C 6.453125 -4.851562 6.613281 -4.390625 6.9375 -4.046875 C 7.269531 -3.710938 7.734375 -3.546875 8.328125 -3.546875 L 9.3125 -3.546875 L 9.3125 0 L 7.09375 0 C 5.613281 0 4.46875 -0.414062 3.65625 -1.25 C 2.851562 -2.082031 2.453125 -3.234375 2.453125 -4.703125 L 2.453125 -8.953125 L 0.40625 -8.953125 L 0.40625 -12.46875 L 2.453125 -12.46875 L 2.453125 -15.78125 L 6.453125 -15.78125 L 6.453125 -12.46875 L 9.3125 -12.46875 Z M 9.3125 -8.953125 "/></g></g></g><g fill="#000000" fill-opacity="1"><g transform="translate(355.721922, 346.57185)"><g><path d="M 14.625 -5.015625 L 17.203125 -12.46875 L 21.125 -12.46875 L 16.328125 0 L 13.1875 0 L 10.578125 -7.125 L 7.9375 0 L 4.875 0 L 0.046875 -12.46875 L 4.03125 -12.46875 L 6.578125 -5.078125 L 9.234375 -12.46875 L 11.9375 -12.46875 Z M 14.625 -5.015625 "/></g></g></g><g fill="#000000" fill-opacity="1"><g transform="translate(376.903627, 346.57185)"><g><path d="M 10.765625 -12.46875 L 14.46875 -12.46875 L 14.46875 0 L 10.765625 0 L 10.765625 -1.21875 C 9.835938 -0.195312 8.535156 0.3125 6.859375 0.3125 C 5.835938 0.3125 4.851562 0.046875 3.90625 -0.484375 C 2.96875 -1.023438 2.203125 -1.796875 1.609375 -2.796875 C 1.015625 -3.796875 0.71875 -4.941406 0.71875 -6.234375 C 0.71875 -7.523438 1.015625 -8.671875 1.609375 -9.671875 C 2.203125 -10.671875 2.96875 -11.4375 3.90625 -11.96875 C 4.851562 -12.507812 5.835938 -12.78125 6.859375 -12.78125 C 8.523438 -12.78125 9.828125 -12.269531 10.765625 -11.25 Z M 7.671875 -3.234375 C 8.535156 -3.234375 9.25 -3.515625 9.8125 -4.078125 C 10.382812 -4.648438 10.671875 -5.367188 10.671875 -6.234375 C 10.671875 -7.097656 10.382812 -7.8125 9.8125 -8.375 C 9.25 -8.945312 8.535156 -9.234375 7.671875 -9.234375 C 6.804688 -9.234375 6.085938 -8.945312 5.515625 -8.375 C 4.953125 -7.8125 4.671875 -7.097656 4.671875 -6.234375 C 4.671875 -5.367188 4.953125 -4.648438 5.515625 -4.078125 C 6.085938 -3.515625 6.804688 -3.234375 7.671875 -3.234375 Z M 7.671875 -3.234375 "/></g></g></g><g fill="#000000" fill-opacity="1"><g transform="translate(392.903848, 346.57185)"><g><path d="M 10.046875 -12.609375 L 10.046875 -9.0625 L 8.4375 -9.0625 C 7.625 -9.0625 6.929688 -8.785156 6.359375 -8.234375 C 5.796875 -7.679688 5.515625 -6.972656 5.515625 -6.109375 L 5.515625 0 L 1.515625 0 L 1.515625 -12.46875 L 5.234375 -12.46875 L 5.234375 -11.03125 C 6.191406 -12.082031 7.46875 -12.609375 9.0625 -12.609375 Z M 10.046875 -12.609375 "/></g></g></g><g fill="#000000" fill-opacity="1"><g transform="translate(403.194845, 346.57185)"><g><path d="M 7.390625 -12.78125 C 8.566406 -12.78125 9.660156 -12.507812 10.671875 -11.96875 C 11.691406 -11.425781 12.507812 -10.660156 13.125 -9.671875 C 13.75 -8.691406 14.0625 -7.578125 14.0625 -6.328125 C 14.0625 -5.960938 14.019531 -5.539062 13.9375 -5.0625 L 4.671875 -5.0625 C 4.835938 -4.3125 5.160156 -3.726562 5.640625 -3.3125 C 6.117188 -2.894531 6.71875 -2.6875 7.4375 -2.6875 C 8.007812 -2.6875 8.488281 -2.789062 8.875 -3 C 9.269531 -3.207031 9.601562 -3.519531 9.875 -3.9375 L 13.6875 -3.9375 C 13.226562 -2.664062 12.453125 -1.640625 11.359375 -0.859375 C 10.273438 -0.078125 8.953125 0.3125 7.390625 0.3125 C 6.191406 0.3125 5.078125 0.0390625 4.046875 -0.5 C 3.023438 -1.039062 2.207031 -1.804688 1.59375 -2.796875 C 0.976562 -3.796875 0.671875 -4.941406 0.671875 -6.234375 C 0.671875 -7.523438 0.976562 -8.664062 1.59375 -9.65625 C 2.207031 -10.65625 3.023438 -11.425781 4.046875 -11.96875 C 5.078125 -12.507812 6.191406 -12.78125 7.390625 -12.78125 Z M 7.390625 -9.765625 C 6.710938 -9.765625 6.140625 -9.578125 5.671875 -9.203125 C 5.203125 -8.828125 4.878906 -8.28125 4.703125 -7.5625 L 10.125 -7.5625 C 9.988281 -8.207031 9.6875 -8.734375 9.21875 -9.140625 C 8.757812 -9.554688 8.148438 -9.765625 7.390625 -9.765625 Z M 7.390625 -9.765625 "/></g></g></g><g fill="#000000" fill-opacity="1"><g transform="translate(417.923687, 346.57185)"><g/></g></g><g fill="#000000" fill-opacity="1"><g transform="translate(425.216148, 346.57185)"><g><path d="M 6.15625 -6.828125 L 6.15625 -3.578125 L 13.046875 -3.578125 L 13.046875 0 L 1.96875 0 L 1.96875 -16.796875 L 12.8125 -16.796875 L 12.8125 -13.21875 L 6.15625 -13.21875 L 6.15625 -10.3125 L 12.5625 -10.3125 L 12.5625 -6.828125 Z M 6.15625 -6.828125 "/></g></g></g><g fill="#000000" fill-opacity="1"><g transform="translate(439.513198, 346.57185)"><g><path d="M 8.921875 -12.78125 C 9.898438 -12.78125 10.765625 -12.550781 11.515625 -12.09375 C 12.273438 -11.644531 12.867188 -11.019531 13.296875 -10.21875 C 13.734375 -9.414062 13.953125 -8.503906 13.953125 -7.484375 L 13.953125 0 L 9.953125 0 L 9.953125 -6.640625 C 9.953125 -7.421875 9.765625 -8.039062 9.390625 -8.5 C 9.015625 -8.96875 8.484375 -9.203125 7.796875 -9.203125 C 7.117188 -9.203125 6.566406 -8.96875 6.140625 -8.5 C 5.722656 -8.03125 5.515625 -7.410156 5.515625 -6.640625 L 5.515625 0 L 1.515625 0 L 1.515625 -12.46875 L 5.234375 -12.46875 L 5.234375 -11.265625 C 6.222656 -12.273438 7.453125 -12.78125 8.921875 -12.78125 Z M 8.921875 -12.78125 "/></g></g></g><g fill="#000000" fill-opacity="1"><g transform="translate(454.889722, 346.57185)"><g><path d="M 10.53125 -12.46875 L 14.21875 -12.46875 L 14.21875 -1.296875 C 14.21875 -0.0351562 13.988281 1.109375 13.53125 2.140625 C 13.082031 3.171875 12.359375 3.992188 11.359375 4.609375 C 10.359375 5.234375 9.09375 5.546875 7.5625 5.546875 C 5.664062 5.546875 4.171875 5.085938 3.078125 4.171875 C 1.984375 3.265625 1.300781 2.097656 1.03125 0.671875 L 4.984375 0.671875 C 5.492188 1.628906 6.332031 2.109375 7.5 2.109375 C 8.414062 2.109375 9.113281 1.84375 9.59375 1.3125 C 10.070312 0.789062 10.3125 0.113281 10.3125 -0.71875 L 10.3125 -1.609375 C 9.914062 -1.203125 9.40625 -0.878906 8.78125 -0.640625 C 8.164062 -0.398438 7.46875 -0.28125 6.6875 -0.28125 C 5.695312 -0.28125 4.742188 -0.535156 3.828125 -1.046875 C 2.910156 -1.566406 2.160156 -2.300781 1.578125 -3.25 C 1.003906 -4.195312 0.71875 -5.296875 0.71875 -6.546875 C 0.71875 -7.796875 1.003906 -8.894531 1.578125 -9.84375 C 2.160156 -10.789062 2.90625 -11.515625 3.8125 -12.015625 C 4.726562 -12.523438 5.679688 -12.78125 6.671875 -12.78125 C 8.285156 -12.78125 9.570312 -12.273438 10.53125 -11.265625 Z M 7.5625 -3.6875 C 8.382812 -3.6875 9.066406 -3.957031 9.609375 -4.5 C 10.160156 -5.050781 10.4375 -5.734375 10.4375 -6.546875 C 10.4375 -7.347656 10.160156 -8.019531 9.609375 -8.5625 C 9.066406 -9.101562 8.382812 -9.375 7.5625 -9.375 C 6.707031 -9.375 6.007812 -9.101562 5.46875 -8.5625 C 4.9375 -8.019531 4.671875 -7.347656 4.671875 -6.546875 C 4.671875 -5.734375 4.9375 -5.050781 5.46875 -4.5 C 6.007812 -3.957031 6.707031 -3.6875 7.5625 -3.6875 Z M 7.5625 -3.6875 "/></g></g></g><g fill="#000000" fill-opacity="1"><g transform="translate(470.650066, 346.57185)"><g><path d="M 5.515625 0 L 1.515625 0 L 1.515625 -12.46875 L 5.515625 -12.46875 Z M 5.5625 -14.390625 L 1.4375 -14.390625 L 1.4375 -17.609375 L 5.5625 -17.609375 Z M 5.5625 -14.390625 "/></g></g></g><g fill="#000000" fill-opacity="1"><g transform="translate(477.702638, 346.57185)"><g><path d="M 8.921875 -12.78125 C 9.898438 -12.78125 10.765625 -12.550781 11.515625 -12.09375 C 12.273438 -11.644531 12.867188 -11.019531 13.296875 -10.21875 C 13.734375 -9.414062 13.953125 -8.503906 13.953125 -7.484375 L 13.953125 0 L 9.953125 0 L 9.953125 -6.640625 C 9.953125 -7.421875 9.765625 -8.039062 9.390625 -8.5 C 9.015625 -8.96875 8.484375 -9.203125 7.796875 -9.203125 C 7.117188 -9.203125 6.566406 -8.96875 6.140625 -8.5 C 5.722656 -8.03125 5.515625 -7.410156 5.515625 -6.640625 L 5.515625 0 L 1.515625 0 L 1.515625 -12.46875 L 5.234375 -12.46875 L 5.234375 -11.265625 C 6.222656 -12.273438 7.453125 -12.78125 8.921875 -12.78125 Z M 8.921875 -12.78125 "/></g></g></g><g fill="#000000" fill-opacity="1"><g transform="translate(493.079174, 346.57185)"><g><path d="M 7.390625 -12.78125 C 8.566406 -12.78125 9.660156 -12.507812 10.671875 -11.96875 C 11.691406 -11.425781 12.507812 -10.660156 13.125 -9.671875 C 13.75 -8.691406 14.0625 -7.578125 14.0625 -6.328125 C 14.0625 -5.960938 14.019531 -5.539062 13.9375 -5.0625 L 4.671875 -5.0625 C 4.835938 -4.3125 5.160156 -3.726562 5.640625 -3.3125 C 6.117188 -2.894531 6.71875 -2.6875 7.4375 -2.6875 C 8.007812 -2.6875 8.488281 -2.789062 8.875 -3 C 9.269531 -3.207031 9.601562 -3.519531 9.875 -3.9375 L 13.6875 -3.9375 C 13.226562 -2.664062 12.453125 -1.640625 11.359375 -0.859375 C 10.273438 -0.078125 8.953125 0.3125 7.390625 0.3125 C 6.191406 0.3125 5.078125 0.0390625 4.046875 -0.5 C 3.023438 -1.039062 2.207031 -1.804688 1.59375 -2.796875 C 0.976562 -3.796875 0.671875 -4.941406 0.671875 -6.234375 C 0.671875 -7.523438 0.976562 -8.664062 1.59375 -9.65625 C 2.207031 -10.65625 3.023438 -11.425781 4.046875 -11.96875 C 5.078125 -12.507812 6.191406 -12.78125 7.390625 -12.78125 Z M 7.390625 -9.765625 C 6.710938 -9.765625 6.140625 -9.578125 5.671875 -9.203125 C 5.203125 -8.828125 4.878906 -8.28125 4.703125 -7.5625 L 10.125 -7.5625 C 9.988281 -8.207031 9.6875 -8.734375 9.21875 -9.140625 C 8.757812 -9.554688 8.148438 -9.765625 7.390625 -9.765625 Z M 7.390625 -9.765625 "/></g></g></g><g fill="#000000" fill-opacity="1"><g transform="translate(507.808016, 346.57185)"><g><path d="M 7.390625 -12.78125 C 8.566406 -12.78125 9.660156 -12.507812 10.671875 -11.96875 C 11.691406 -11.425781 12.507812 -10.660156 13.125 -9.671875 C 13.75 -8.691406 14.0625 -7.578125 14.0625 -6.328125 C 14.0625 -5.960938 14.019531 -5.539062 13.9375 -5.0625 L 4.671875 -5.0625 C 4.835938 -4.3125 5.160156 -3.726562 5.640625 -3.3125 C 6.117188 -2.894531 6.71875 -2.6875 7.4375 -2.6875 C 8.007812 -2.6875 8.488281 -2.789062 8.875 -3 C 9.269531 -3.207031 9.601562 -3.519531 9.875 -3.9375 L 13.6875 -3.9375 C 13.226562 -2.664062 12.453125 -1.640625 11.359375 -0.859375 C 10.273438 -0.078125 8.953125 0.3125 7.390625 0.3125 C 6.191406 0.3125 5.078125 0.0390625 4.046875 -0.5 C 3.023438 -1.039062 2.207031 -1.804688 1.59375 -2.796875 C 0.976562 -3.796875 0.671875 -4.941406 0.671875 -6.234375 C 0.671875 -7.523438 0.976562 -8.664062 1.59375 -9.65625 C 2.207031 -10.65625 3.023438 -11.425781 4.046875 -11.96875 C 5.078125 -12.507812 6.191406 -12.78125 7.390625 -12.78125 Z M 7.390625 -9.765625 C 6.710938 -9.765625 6.140625 -9.578125 5.671875 -9.203125 C 5.203125 -8.828125 4.878906 -8.28125 4.703125 -7.5625 L 10.125 -7.5625 C 9.988281 -8.207031 9.6875 -8.734375 9.21875 -9.140625 C 8.757812 -9.554688 8.148438 -9.765625 7.390625 -9.765625 Z M 7.390625 -9.765625 "/></g></g></g><g fill="#000000" fill-opacity="1"><g transform="translate(522.536858, 346.57185)"><g><path d="M 10.046875 -12.609375 L 10.046875 -9.0625 L 8.4375 -9.0625 C 7.625 -9.0625 6.929688 -8.785156 6.359375 -8.234375 C 5.796875 -7.679688 5.515625 -6.972656 5.515625 -6.109375 L 5.515625 0 L 1.515625 0 L 1.515625 -12.46875 L 5.234375 -12.46875 L 5.234375 -11.03125 C 6.191406 -12.082031 7.46875 -12.609375 9.0625 -12.609375 Z M 10.046875 -12.609375 "/></g></g></g><g fill="#000000" fill-opacity="1"><g transform="translate(532.827855, 346.57185)"><g/></g></g><g fill="#000000" fill-opacity="1"><g transform="translate(540.120316, 346.57185)"><g><path d="M 6.28125 0 L 2.09375 0 L 2.09375 -16.796875 L 6.28125 -16.796875 Z M 6.28125 0 "/></g></g></g><g fill="#000000" fill-opacity="1"><g transform="translate(548.468254, 346.57185)"><g><path d="M 8.921875 -12.78125 C 9.898438 -12.78125 10.765625 -12.550781 11.515625 -12.09375 C 12.273438 -11.644531 12.867188 -11.019531 13.296875 -10.21875 C 13.734375 -9.414062 13.953125 -8.503906 13.953125 -7.484375 L 13.953125 0 L 9.953125 0 L 9.953125 -6.640625 C 9.953125 -7.421875 9.765625 -8.039062 9.390625 -8.5 C 9.015625 -8.96875 8.484375 -9.203125 7.796875 -9.203125 C 7.117188 -9.203125 6.566406 -8.96875 6.140625 -8.5 C 5.722656 -8.03125 5.515625 -7.410156 5.515625 -6.640625 L 5.515625 0 L 1.515625 0 L 1.515625 -12.46875 L 5.234375 -12.46875 L 5.234375 -11.265625 C 6.222656 -12.273438 7.453125 -12.78125 8.921875 -12.78125 Z M 8.921875 -12.78125 "/></g></g></g><g fill="#000000" fill-opacity="1"><g transform="translate(563.84479, 346.57185)"><g/></g></g><g fill="#000000" fill-opacity="1"><g transform="translate(571.137251, 346.57185)"><g><path d="M 9.90625 0.3125 C 8.300781 0.3125 6.816406 -0.046875 5.453125 -0.765625 C 4.085938 -1.484375 2.992188 -2.503906 2.171875 -3.828125 C 1.359375 -5.160156 0.953125 -6.679688 0.953125 -8.390625 C 0.953125 -10.097656 1.359375 -11.613281 2.171875 -12.9375 C 2.992188 -14.269531 4.085938 -15.296875 5.453125 -16.015625 C 6.816406 -16.734375 8.300781 -17.09375 9.90625 -17.09375 C 11.28125 -17.09375 12.554688 -16.828125 13.734375 -16.296875 C 14.921875 -15.773438 15.929688 -15.015625 16.765625 -14.015625 C 17.609375 -13.015625 18.203125 -11.84375 18.546875 -10.5 L 14.171875 -10.5 C 13.816406 -11.332031 13.269531 -12 12.53125 -12.5 C 11.789062 -13.007812 10.921875 -13.265625 9.921875 -13.265625 C 9.046875 -13.265625 8.25 -13.050781 7.53125 -12.625 C 6.8125 -12.207031 6.25 -11.628906 5.84375 -10.890625 C 5.4375 -10.148438 5.234375 -9.316406 5.234375 -8.390625 C 5.234375 -7.460938 5.4375 -6.628906 5.84375 -5.890625 C 6.25 -5.160156 6.8125 -4.582031 7.53125 -4.15625 C 8.25 -3.738281 9.046875 -3.53125 9.921875 -3.53125 C 10.953125 -3.53125 11.832031 -3.78125 12.5625 -4.28125 C 13.300781 -4.78125 13.847656 -5.457031 14.203125 -6.3125 L 18.546875 -6.3125 C 18.203125 -4.945312 17.613281 -3.765625 16.78125 -2.765625 C 15.957031 -1.765625 14.953125 -1 13.765625 -0.46875 C 12.585938 0.0507812 11.300781 0.3125 9.90625 0.3125 Z M 9.90625 0.3125 "/></g></g></g><g fill="#000000" fill-opacity="1"><g transform="translate(590.495829, 346.57185)"><g><path d="M 9.140625 -12.78125 C 10.078125 -12.78125 10.921875 -12.554688 11.671875 -12.109375 C 12.429688 -11.660156 13.019531 -11.039062 13.4375 -10.25 C 13.863281 -9.457031 14.078125 -8.5625 14.078125 -7.5625 L 14.078125 0 L 10.078125 0 L 10.078125 -6.640625 C 10.078125 -7.421875 9.890625 -8.039062 9.515625 -8.5 C 9.140625 -8.96875 8.609375 -9.203125 7.921875 -9.203125 C 7.242188 -9.203125 6.691406 -8.96875 6.265625 -8.5 C 5.847656 -8.03125 5.640625 -7.410156 5.640625 -6.640625 L 5.640625 0 L 1.625 0 L 1.625 -17.265625 L 5.640625 -17.265625 L 5.640625 -11.4375 C 6.609375 -12.332031 7.773438 -12.78125 9.140625 -12.78125 Z M 9.140625 -12.78125 "/></g></g></g><g fill="#000000" fill-opacity="1"><g transform="translate(605.992309, 346.57185)"><g><path d="M 10.765625 -12.46875 L 14.46875 -12.46875 L 14.46875 0 L 10.765625 0 L 10.765625 -1.21875 C 9.835938 -0.195312 8.535156 0.3125 6.859375 0.3125 C 5.835938 0.3125 4.851562 0.046875 3.90625 -0.484375 C 2.96875 -1.023438 2.203125 -1.796875 1.609375 -2.796875 C 1.015625 -3.796875 0.71875 -4.941406 0.71875 -6.234375 C 0.71875 -7.523438 1.015625 -8.671875 1.609375 -9.671875 C 2.203125 -10.671875 2.96875 -11.4375 3.90625 -11.96875 C 4.851562 -12.507812 5.835938 -12.78125 6.859375 -12.78125 C 8.523438 -12.78125 9.828125 -12.269531 10.765625 -11.25 Z M 7.671875 -3.234375 C 8.535156 -3.234375 9.25 -3.515625 9.8125 -4.078125 C 10.382812 -4.648438 10.671875 -5.367188 10.671875 -6.234375 C 10.671875 -7.097656 10.382812 -7.8125 9.8125 -8.375 C 9.25 -8.945312 8.535156 -9.234375 7.671875 -9.234375 C 6.804688 -9.234375 6.085938 -8.945312 5.515625 -8.375 C 4.953125 -7.8125 4.671875 -7.097656 4.671875 -6.234375 C 4.671875 -5.367188 4.953125 -4.648438 5.515625 -4.078125 C 6.085938 -3.515625 6.804688 -3.234375 7.671875 -3.234375 Z M 7.671875 -3.234375 "/></g></g></g><g fill="#000000" fill-opacity="1"><g transform="translate(621.992541, 346.57185)"><g><path d="M 10.046875 -12.609375 L 10.046875 -9.0625 L 8.4375 -9.0625 C 7.625 -9.0625 6.929688 -8.785156 6.359375 -8.234375 C 5.796875 -7.679688 5.515625 -6.972656 5.515625 -6.109375 L 5.515625 0 L 1.515625 0 L 1.515625 -12.46875 L 5.234375 -12.46875 L 5.234375 -11.03125 C 6.191406 -12.082031 7.46875 -12.609375 9.0625 -12.609375 Z M 10.046875 -12.609375 "/></g></g></g><g fill="#000000" fill-opacity="1"><g transform="translate(632.283539, 346.57185)"><g><path d="M 5.640625 0 L 1.625 0 L 1.625 -17.265625 L 5.640625 -17.265625 Z M 5.640625 0 "/></g></g></g><g fill="#000000" fill-opacity="1"><g transform="translate(639.576, 346.57185)"><g><path d="M 7.609375 0.3125 C 6.398438 0.3125 5.265625 0.0507812 4.203125 -0.46875 C 3.140625 -1 2.285156 -1.757812 1.640625 -2.75 C 0.992188 -3.75 0.671875 -4.910156 0.671875 -6.234375 C 0.671875 -7.546875 0.992188 -8.695312 1.640625 -9.6875 C 2.285156 -10.675781 3.140625 -11.4375 4.203125 -11.96875 C 5.265625 -12.507812 6.398438 -12.78125 7.609375 -12.78125 C 8.804688 -12.78125 9.929688 -12.507812 10.984375 -11.96875 C 12.035156 -11.4375 12.882812 -10.675781 13.53125 -9.6875 C 14.1875 -8.695312 14.515625 -7.546875 14.515625 -6.234375 C 14.515625 -4.910156 14.1875 -3.75 13.53125 -2.75 C 12.882812 -1.757812 12.035156 -1 10.984375 -0.46875 C 9.929688 0.0507812 8.804688 0.3125 7.609375 0.3125 Z M 7.609375 -3.265625 C 8.460938 -3.265625 9.164062 -3.539062 9.71875 -4.09375 C 10.269531 -4.65625 10.546875 -5.367188 10.546875 -6.234375 C 10.546875 -7.078125 10.269531 -7.78125 9.71875 -8.34375 C 9.164062 -8.914062 8.460938 -9.203125 7.609375 -9.203125 C 6.742188 -9.203125 6.035156 -8.914062 5.484375 -8.34375 C 4.929688 -7.78125 4.65625 -7.078125 4.65625 -6.234375 C 4.65625 -5.367188 4.929688 -4.65625 5.484375 -4.09375 C 6.035156 -3.539062 6.742188 -3.265625 7.609375 -3.265625 Z M 7.609375 -3.265625 "/></g></g></g><g fill="#000000" fill-opacity="1"><g transform="translate(654.76062, 346.57185)"><g><path d="M 9.3125 -8.953125 L 6.453125 -8.953125 L 6.453125 -5.4375 C 6.453125 -4.851562 6.613281 -4.390625 6.9375 -4.046875 C 7.269531 -3.710938 7.734375 -3.546875 8.328125 -3.546875 L 9.3125 -3.546875 L 9.3125 0 L 7.09375 0 C 5.613281 0 4.46875 -0.414062 3.65625 -1.25 C 2.851562 -2.082031 2.453125 -3.234375 2.453125 -4.703125 L 2.453125 -8.953125 L 0.40625 -8.953125 L 0.40625 -12.46875 L 2.453125 -12.46875 L 2.453125 -15.78125 L 6.453125 -15.78125 L 6.453125 -12.46875 L 9.3125 -12.46875 Z M 9.3125 -8.953125 "/></g></g></g><g fill="#000000" fill-opacity="1"><g transform="translate(665.075593, 346.57185)"><g><path d="M 9.3125 -8.953125 L 6.453125 -8.953125 L 6.453125 -5.4375 C 6.453125 -4.851562 6.613281 -4.390625 6.9375 -4.046875 C 7.269531 -3.710938 7.734375 -3.546875 8.328125 -3.546875 L 9.3125 -3.546875 L 9.3125 0 L 7.09375 0 C 5.613281 0 4.46875 -0.414062 3.65625 -1.25 C 2.851562 -2.082031 2.453125 -3.234375 2.453125 -4.703125 L 2.453125 -8.953125 L 0.40625 -8.953125 L 0.40625 -12.46875 L 2.453125 -12.46875 L 2.453125 -15.78125 L 6.453125 -15.78125 L 6.453125 -12.46875 L 9.3125 -12.46875 Z M 9.3125 -8.953125 "/></g></g></g><g fill="#000000" fill-opacity="1"><g transform="translate(675.390565, 346.57185)"><g><path d="M 7.390625 -12.78125 C 8.566406 -12.78125 9.660156 -12.507812 10.671875 -11.96875 C 11.691406 -11.425781 12.507812 -10.660156 13.125 -9.671875 C 13.75 -8.691406 14.0625 -7.578125 14.0625 -6.328125 C 14.0625 -5.960938 14.019531 -5.539062 13.9375 -5.0625 L 4.671875 -5.0625 C 4.835938 -4.3125 5.160156 -3.726562 5.640625 -3.3125 C 6.117188 -2.894531 6.71875 -2.6875 7.4375 -2.6875 C 8.007812 -2.6875 8.488281 -2.789062 8.875 -3 C 9.269531 -3.207031 9.601562 -3.519531 9.875 -3.9375 L 13.6875 -3.9375 C 13.226562 -2.664062 12.453125 -1.640625 11.359375 -0.859375 C 10.273438 -0.078125 8.953125 0.3125 7.390625 0.3125 C 6.191406 0.3125 5.078125 0.0390625 4.046875 -0.5 C 3.023438 -1.039062 2.207031 -1.804688 1.59375 -2.796875 C 0.976562 -3.796875 0.671875 -4.941406 0.671875 -6.234375 C 0.671875 -7.523438 0.976562 -8.664062 1.59375 -9.65625 C 2.207031 -10.65625 3.023438 -11.425781 4.046875 -11.96875 C 5.078125 -12.507812 6.191406 -12.78125 7.390625 -12.78125 Z M 7.390625 -9.765625 C 6.710938 -9.765625 6.140625 -9.578125 5.671875 -9.203125 C 5.203125 -8.828125 4.878906 -8.28125 4.703125 -7.5625 L 10.125 -7.5625 C 9.988281 -8.207031 9.6875 -8.734375 9.21875 -9.140625 C 8.757812 -9.554688 8.148438 -9.765625 7.390625 -9.765625 Z M 7.390625 -9.765625 "/></g></g></g><g fill="#000000" fill-opacity="1"><g transform="translate(690.11943, 346.57185)"><g><path d="M 3.265625 3.1875 L 0.53125 3.1875 L 1.96875 -3.71875 L 5.5 -3.71875 Z M 3.265625 3.1875 "/></g></g></g><g fill="#000000" fill-opacity="1"><g transform="translate(696.836168, 346.57185)"><g/></g></g><g fill="#000000" fill-opacity="1"><g transform="translate(704.128629, 346.57185)"><g><path d="M 13.765625 -6.671875 L 13.765625 -16.796875 L 17.796875 -16.796875 L 17.796875 0 L 14.875 0 L 6 -10.078125 L 6 0 L 1.96875 0 L 1.96875 -16.796875 L 4.875 -16.796875 Z M 13.765625 -6.671875 "/></g></g></g><g fill="#000000" fill-opacity="1"><g transform="translate(723.871038, 346.57185)"><g><path d="M 9.90625 0.3125 C 8.300781 0.3125 6.816406 -0.046875 5.453125 -0.765625 C 4.085938 -1.484375 2.992188 -2.503906 2.171875 -3.828125 C 1.359375 -5.160156 0.953125 -6.679688 0.953125 -8.390625 C 0.953125 -10.097656 1.359375 -11.613281 2.171875 -12.9375 C 2.992188 -14.269531 4.085938 -15.296875 5.453125 -16.015625 C 6.816406 -16.734375 8.300781 -17.09375 9.90625 -17.09375 C 11.28125 -17.09375 12.554688 -16.828125 13.734375 -16.296875 C 14.921875 -15.773438 15.929688 -15.015625 16.765625 -14.015625 C 17.609375 -13.015625 18.203125 -11.84375 18.546875 -10.5 L 14.171875 -10.5 C 13.816406 -11.332031 13.269531 -12 12.53125 -12.5 C 11.789062 -13.007812 10.921875 -13.265625 9.921875 -13.265625 C 9.046875 -13.265625 8.25 -13.050781 7.53125 -12.625 C 6.8125 -12.207031 6.25 -11.628906 5.84375 -10.890625 C 5.4375 -10.148438 5.234375 -9.316406 5.234375 -8.390625 C 5.234375 -7.460938 5.4375 -6.628906 5.84375 -5.890625 C 6.25 -5.160156 6.8125 -4.582031 7.53125 -4.15625 C 8.25 -3.738281 9.046875 -3.53125 9.921875 -3.53125 C 10.953125 -3.53125 11.832031 -3.78125 12.5625 -4.28125 C 13.300781 -4.78125 13.847656 -5.457031 14.203125 -6.3125 L 18.546875 -6.3125 C 18.203125 -4.945312 17.613281 -3.765625 16.78125 -2.765625 C 15.957031 -1.765625 14.953125 -1 13.765625 -0.46875 C 12.585938 0.0507812 11.300781 0.3125 9.90625 0.3125 Z M 9.90625 0.3125 "/></g></g></g></svg>